<svg id="Layer_1" data-name="Layer 1" xmlns="http://www.w3.org/2000/svg" viewBox="0 0 632 183.26"><defs></defs><title>HubSpot Logo Vector</title><path d="M184,442.54h22v49h46.48v-49h22.06V562.72H252.52v-50H206v50H184V442.54Z" transform="translate(-184 -408.37)"/><path  d="M344.39,523.57a18.25,18.25,0,0,1-36.5,0V471.83H287v51.74a39.15,39.15,0,0,0,78.3,0V471.83h-20.9v51.74" transform="translate(-184 -408.37)"/><path  d="M423.63,472.44c-10.37,0-17.6,3-24.59,9.87V442.54h-21v73.7c0,27.59,19.95,46.48,42.35,46.48,24.92,0,46.74-19.23,46.74-45.14,0-25.58-20.12-45.14-43.53-45.14Zm.52,70.88c-14.21,0-25.07-11.86-25.07-25.74s10.86-25.75,25.07-25.75c12,0,22.91,11.87,22.91,25.75s-10.87,25.74-22.91,25.74Z" transform="translate(-184 -408.37)"/><path  d="M502.38,477.72c0-10.54,7-13.88,14.71-13.88,6.19,0,14.38,4.68,19.73,10.37l13.7-16c-6.85-9.2-20.72-15.55-32.09-15.55-22.74,0-39.13,13.21-39.13,35.11,0,40.63,50,27.75,50,50.49,0,7-6.86,13.21-14.71,13.21-12.38,0-16.39-6-22.07-12.38L477.3,544.76c9.7,11.87,21.74,17.89,36.12,17.89,21.56,0,39-13.38,39-34.28,0-45.14-50-31.09-50-50.65" transform="translate(-184 -408.37)"/><path  d="M607.57,471.26c-22.41,0-42.36,18.88-42.36,46.48v73.89h21v-40c7,6.86,14.22,9.87,24.59,9.87,23.41,0,43.54-19.56,43.54-45.14,0-25.91-21.84-45.14-46.74-45.14Zm3.72,70.89c-14.2,0-25.07-11.88-25.07-25.75s10.87-25.75,25.07-25.75c12,0,22.91,11.87,22.91,25.75s-10.87,25.75-22.91,25.75Z" transform="translate(-184 -408.37)"/><path  d="M808.64,543.32c-12.37,0-15.88-5.34-15.88-13.54V493.5H812V475.11H792.76V450.87l-21.23,9.53v73.89c0,18.9,13,28.43,30.92,28.43a42.56,42.56,0,0,0,8.37-.67L816,543c-2.34.17-5,.33-7.36.33" transform="translate(-184 -408.37)"/><path  d="M753.35,494.57a46.13,46.13,0,0,0-16.75-16.63,44.84,44.84,0,0,0-16.93-5.87v-22a16.21,16.21,0,0,0,10-15.19,16.69,16.69,0,1,0-33.37,0,16,16,0,0,0,9.78,15.19v22a48.75,48.75,0,0,0-14.73,4.62c-9.55-7.25-40.87-31.05-59.19-44.95a17.91,17.91,0,0,0,.77-4.88,18.49,18.49,0,1,0-18.48,18.5,18.29,18.29,0,0,0,9.49-2.7l3.86,2.93,53.13,38.28a44.8,44.8,0,0,0-7.52,8.8,41.11,41.11,0,0,0-6.83,22.15v1.68a46.39,46.39,0,0,0,2.91,16,41.91,41.91,0,0,0,6.88,12l-17.63,17.67a14.28,14.28,0,1,0-4.91,27.7,14.3,14.3,0,0,0,13.64-18.59L685.71,553a46.66,46.66,0,0,0,8.09,4.43,47.46,47.46,0,0,0,19,4H714A45.39,45.39,0,0,0,752.59,540a41.79,41.79,0,0,0,6.58-22.55v-.41a44.32,44.32,0,0,0-5.82-22.48Zm-22.27,38.24c-5,5.49-10.63,8.88-17.06,8.88H713a23.15,23.15,0,0,1-10.78-2.86,25,25,0,0,1-9.44-8.6,20.05,20.05,0,0,1-3.93-11.71v-1.26a24,24,0,0,1,2.77-11.66,25.26,25.26,0,0,1,8.79-9.62,21.55,21.55,0,0,1,12.18-3.67H713A24.71,24.71,0,0,1,724.41,495a24.18,24.18,0,0,1,9,8.18,26.08,26.08,0,0,1,4,11.5c.06.86.1,1.74.1,2.59,0,5.63-2.15,10.85-6.46,15.59Z" transform="translate(-184 -408.37)"/></svg>