<svg id="Layer_1" data-name="Layer 1" xmlns="http://www.w3.org/2000/svg" viewBox="0 0 501.06 78.07"><defs><style>.cls-1{fill:none;stroke:#000;stroke-width:2.12px;}.cls-2{fill-rule:evenodd;}</style></defs><path d="M369.52,519.5c0,3.67-.92,6.5-2.75,8.59s-4.42,3.08-7.83,3.08a10.28,10.28,0,0,1-7.92-3.08c-1.84-2-2.75-4.92-2.75-8.67s.91-6.58,2.75-8.58,4.41-3,7.92-3a10.22,10.22,0,0,1,7.83,3.09c1.83,2,2.75,4.83,2.75,8.58Zm-17.34,0c0,2.84.59,4.92,1.67,6.34a5.79,5.79,0,0,0,5,2.16,6.14,6.14,0,0,0,5-2.16,10.42,10.42,0,0,0,1.67-6.34c0-2.83-.58-4.91-1.67-6.33a5.64,5.64,0,0,0-4.91-2.17,6,6,0,0,0-5,2.17c-1.16,1.42-1.75,3.5-1.75,6.33Zm29.76,11.67a6.3,6.3,0,0,1-5.09-2.33h-.25c.09,1.5.25,2.33.25,2.67v7h-3.66V513.67h2.91c.09.33.25,1.08.5,2.33h.17a6,6,0,0,1,5.17-2.58,5.91,5.91,0,0,1,5,2.33c1.25,1.5,1.75,3.75,1.75,6.5s-.58,5-1.83,6.5a5.62,5.62,0,0,1-4.92,2.42Zm-.83-14.83a3.72,3.72,0,0,0-3.17,1.25,6.48,6.48,0,0,0-1,4.08v.58a7.75,7.75,0,0,0,1,4.5,3.75,3.75,0,0,0,3.25,1.42,3.33,3.33,0,0,0,2.92-1.5,8.12,8.12,0,0,0,1-4.42,7.81,7.81,0,0,0-1-4.33,3.45,3.45,0,0,0-3-1.58Zm18.67,14.83a8.51,8.51,0,0,1-6.26-2.33,8.86,8.86,0,0,1-2.25-6.42,9.44,9.44,0,0,1,2.09-6.58,7.21,7.21,0,0,1,5.75-2.42,6.92,6.92,0,0,1,5.33,2.08,8.22,8.22,0,0,1,2,5.67v2H395a5.86,5.86,0,0,0,1.34,3.83,4.52,4.52,0,0,0,3.58,1.34,10.2,10.2,0,0,0,2.84-.34,11.37,11.37,0,0,0,2.83-1v2.92a11.29,11.29,0,0,1-2.67.92,12.27,12.27,0,0,1-3.16.33Zm-.67-15a3.78,3.78,0,0,0-2.84,1.08A5.9,5.9,0,0,0,395,520.5h7.76a4.4,4.4,0,0,0-1.09-3.25,2.9,2.9,0,0,0-2.58-1.08ZM425,530.84h-3.67V520.25a4.07,4.07,0,0,0-.83-2.91,3.5,3.5,0,0,0-2.59-1,3.87,3.87,0,0,0-3.33,1.33c-.75.92-1.09,2.42-1.09,4.58v8.59h-3.66V513.67h2.83l.5,2.25h.17a4.92,4.92,0,0,1,2.16-1.92,8.09,8.09,0,0,1,3.17-.66c4.09,0,6.17,2.08,6.17,6.25l.17,11.25Zm12.16-22.67h6.76c3.08,0,5.33.41,6.75,1.33a4.76,4.76,0,0,1,2.08,4.34,5.44,5.44,0,0,1-1,3.33,4.9,4.9,0,0,1-2.92,1.67V519a7,7,0,0,1,3.59,1.75,4.91,4.91,0,0,1,1.08,3.59,5.86,5.86,0,0,1-2.17,4.75,9.05,9.05,0,0,1-5.91,1.75H437.2V508.17Zm3.76,9.33h3.58a6.31,6.31,0,0,0,3.42-.75,2.75,2.75,0,0,0,1.08-2.5,2.51,2.51,0,0,0-1.17-2.33,6.88,6.88,0,0,0-3.66-.75h-3.25Zm0,3.09v7.16h3.91a6.39,6.39,0,0,0,3.59-.91,3.36,3.36,0,0,0,1.16-2.84,2.81,2.81,0,0,0-1.25-2.58,6.3,6.3,0,0,0-3.66-.83Zm24.75-7.17a9.91,9.91,0,0,1,1.83.17l-.33,3.41a9.6,9.6,0,0,0-1.58-.16,4.53,4.53,0,0,0-3.5,1.41A5.17,5.17,0,0,0,460.7,522v9H457V513.75h2.84l.5,3.09h.17a6.77,6.77,0,0,1,2.16-2.42,4.31,4.31,0,0,1,2.92-1Zm19.5,8.83a9.14,9.14,0,0,1-2.16,6.5,7.77,7.77,0,0,1-6,2.42,8.08,8.08,0,0,1-4.25-1.08,7.24,7.24,0,0,1-2.83-3.09,10.44,10.44,0,0,1-1-4.75,9.27,9.27,0,0,1,2.17-6.5,7.66,7.66,0,0,1,6.08-2.33,7.17,7.17,0,0,1,5.84,2.42,9.21,9.21,0,0,1,2.16,6.41Zm-12.5,0c0,4,1.5,5.92,4.42,5.92s4.33-1.92,4.33-5.92-1.5-5.83-4.42-5.83a3.77,3.77,0,0,0-3.33,1.5,7.72,7.72,0,0,0-1,4.33Zm26.67,8.59-.75-2.42h-.08a8.48,8.48,0,0,1-2.5,2.17,8.84,8.84,0,0,1-3.25.58,5.65,5.65,0,0,1-4-1.33,5.16,5.16,0,0,1-1.42-3.84,4.56,4.56,0,0,1,2-4q1.88-1.37,6-1.5l2.92-.08v-.92a2.93,2.93,0,0,0-3.25-3.25,8.57,8.57,0,0,0-2.5.34,19.62,19.62,0,0,0-2.34.91L489,514.84a12.22,12.22,0,0,1,3.08-1.09,13.89,13.89,0,0,1,3.08-.33,7.5,7.5,0,0,1,4.92,1.42,5.62,5.62,0,0,1,1.67,4.41v11.59Zm-5.5-2.42a4.32,4.32,0,0,0,3.17-1.08,4.2,4.2,0,0,0,1.25-3.09v-1.5l-2.17.09a8,8,0,0,0-3.75.83,2.6,2.6,0,0,0-1.17,2.33,2.36,2.36,0,0,0,.67,1.75,2.44,2.44,0,0,0,2,.67ZM512,531.17a6.13,6.13,0,0,1-5-2.33c-1.25-1.5-1.75-3.75-1.75-6.5s.58-5,1.83-6.59a6,6,0,0,1,5.09-2.33,5.91,5.91,0,0,1,5.16,2.5h.17a22.23,22.23,0,0,1-.25-2.92v-6.25h3.67v24.17H518l-.58-2.25h-.17a6.18,6.18,0,0,1-5.25,2.5Zm1-2.92a4.19,4.19,0,0,0,3.33-1.25,6.43,6.43,0,0,0,1.09-4.08v-.58c0-2.17-.34-3.75-1.09-4.59a4,4,0,0,0-3.33-1.33A3.4,3.4,0,0,0,510,518a8.24,8.24,0,0,0-1,4.5,7.82,7.82,0,0,0,1,4.34,3.27,3.27,0,0,0,2.92,1.41Zm19.17,2.92a7.56,7.56,0,0,1-5.92-2.25q-2-2.25-2-6.5a9.57,9.57,0,0,1,2.17-6.67,8,8,0,0,1,6.08-2.33,11.73,11.73,0,0,1,4.92,1l-1.08,2.92a11.36,11.36,0,0,0-3.75-.92c-3,0-4.5,2-4.5,5.92a7.09,7.09,0,0,0,1.08,4.33,3.81,3.81,0,0,0,3.25,1.5,8.81,8.81,0,0,0,4.58-1.25v3.17a8.78,8.78,0,0,1-2.08.83,21.13,21.13,0,0,1-2.75.25Zm18.84-.33-.75-2.42h-.09a8.24,8.24,0,0,1-2.5,2.17,8.76,8.76,0,0,1-3.25.58,5.52,5.52,0,0,1-4-1.33A5.2,5.2,0,0,1,539,526a4.69,4.69,0,0,1,1.92-4c1.25-.91,3.34-1.41,6-1.5l2.92-.08v-.92a2.92,2.92,0,0,0-3.25-3.25,8.61,8.61,0,0,0-2.5.34,20.14,20.14,0,0,0-2.33.91l-1.17-2.66a11.32,11.32,0,0,1,3.08-1.09,14,14,0,0,1,3.09-.33,7.49,7.49,0,0,1,4.91,1.42,5.62,5.62,0,0,1,1.67,4.41v11.59Zm-5.42-2.42a4.32,4.32,0,0,0,3.17-1.08,4.2,4.2,0,0,0,1.25-3.09v-1.5l-2.17.09a7.74,7.74,0,0,0-3.75.83,2.6,2.6,0,0,0-1.17,2.33,2.36,2.36,0,0,0,.67,1.75,2.44,2.44,0,0,0,2,.67ZM569.39,526a4.43,4.43,0,0,1-1.84,3.84,8.72,8.72,0,0,1-5.25,1.33,11.77,11.77,0,0,1-5.5-1.08v-3.17a13.8,13.8,0,0,0,5.67,1.42c2.25,0,3.33-.67,3.33-2a1.55,1.55,0,0,0-.33-1.09,4.07,4.07,0,0,0-1.25-.91,11,11,0,0,0-2.42-1,12,12,0,0,1-4-2.34,4.52,4.52,0,0,1-1.08-3,3.89,3.89,0,0,1,1.75-3.41,8.26,8.26,0,0,1,4.83-1.25,13.63,13.63,0,0,1,5.75,1.25l-1.16,2.75a11.47,11.47,0,0,0-4.67-1.17c-1.92,0-2.83.58-2.83,1.67a1.5,1.5,0,0,0,.75,1.33,22.06,22.06,0,0,0,3.25,1.5,15.2,15.2,0,0,1,3.08,1.5,5.32,5.32,0,0,1,1.42,1.58,5,5,0,0,1,.5,2.25Zm9.58,2.25a9.89,9.89,0,0,0,2.67-.41v2.75a6.38,6.38,0,0,1-1.58.42,14.47,14.47,0,0,1-1.92.16c-3.5,0-5.17-1.83-5.17-5.42V516.5h-2.33v-1.58l2.5-1.33,1.25-3.59h2.25v3.75h4.92v2.75h-4.92v9.17a2.71,2.71,0,0,0,.66,1.92,2.22,2.22,0,0,0,1.67.66Zm12.84,2.92a8.48,8.48,0,0,1-6.25-2.33,8.86,8.86,0,0,1-2.25-6.42c0-2.83.66-5,2.08-6.58a8.07,8.07,0,0,1,11.17-.34,8.18,8.18,0,0,1,1.91,5.67v2H587.06a5.86,5.86,0,0,0,1.33,3.83,4.52,4.52,0,0,0,3.58,1.34,10.24,10.24,0,0,0,2.84-.34,11.37,11.37,0,0,0,2.83-1v2.92a11.29,11.29,0,0,1-2.67.92,12.72,12.72,0,0,1-3.16.33Zm-.67-15a3.75,3.75,0,0,0-2.83,1.08,5.76,5.76,0,0,0-1.25,3.25h7.83a4.39,4.39,0,0,0-1.08-3.25,3.41,3.41,0,0,0-2.67-1.08Zm19.42-2.75a9.91,9.91,0,0,1,1.83.17l-.33,3.33a10.6,10.6,0,0,0-1.58-.17,4.84,4.84,0,0,0-3.59,1.42,5.21,5.21,0,0,0-1.33,3.75v9h-3.67V513.75h2.84l.5,3.09h.16a6.79,6.79,0,0,1,2.17-2.42,4.52,4.52,0,0,1,3-1Zm25.17,11.25a5.86,5.86,0,0,1-2.17,4.75,9.58,9.58,0,0,1-6.08,1.75,13.35,13.35,0,0,1-6.25-1.25v-3.5a22.42,22.42,0,0,0,3.25,1.17,11.71,11.71,0,0,0,3.25.41,5.45,5.45,0,0,0,3.25-.83,2.73,2.73,0,0,0,1-2.25,2.82,2.82,0,0,0-1-2.17,15.08,15.08,0,0,0-4-2.08,10.19,10.19,0,0,1-4.42-2.92,6.22,6.22,0,0,1-1.25-3.83,5.34,5.34,0,0,1,2-4.42,8.45,8.45,0,0,1,5.42-1.67,16.58,16.58,0,0,1,6.5,1.42l-1.08,3.09a13.93,13.93,0,0,0-5.42-1.25,3.76,3.76,0,0,0-2.75.83,3,3,0,0,0-.58,3.58,3.31,3.31,0,0,0,1.25,1.17c.58.33,1.58.83,3.08,1.5a17.92,17.92,0,0,1,3.67,1.92,5.67,5.67,0,0,1,1.75,2,5.92,5.92,0,0,1,.58,2.58Zm18.5-2.42a9.14,9.14,0,0,1-2.16,6.5,7.76,7.76,0,0,1-6,2.42,8.05,8.05,0,0,1-4.25-1.08A7.26,7.26,0,0,1,639,527a10.44,10.44,0,0,1-1-4.75,9.27,9.27,0,0,1,2.17-6.5,7.69,7.69,0,0,1,6.08-2.33,7.17,7.17,0,0,1,5.84,2.42,9.21,9.21,0,0,1,2.16,6.41Zm-12.58,0c0,4,1.5,5.92,4.42,5.92s4.33-1.92,4.33-5.92-1.5-5.83-4.42-5.83a3.77,3.77,0,0,0-3.33,1.5,8.56,8.56,0,0,0-1,4.33Zm24.59-5.75H662v14.42h-3.67V516.5h-2.84v-1.66l2.84-1.09v-1.08a6.3,6.3,0,0,1,1.42-4.5,5.67,5.67,0,0,1,4.33-1.5,11.31,11.31,0,0,1,3.75.58l-1,2.75a7.36,7.36,0,0,0-2.58-.42,2.2,2.2,0,0,0-1.84.76,3.75,3.75,0,0,0-.58,2.33v1.08h4.25l.17,2.75Zm8.5,11.75a9.82,9.82,0,0,0,2.66-.41v2.75a6.14,6.14,0,0,1-1.58.42,14.19,14.19,0,0,1-1.92.16c-3.5,0-5.16-1.83-5.16-5.42V516.5H666.4v-1.58l2.5-1.33,1.25-3.59h2.25v3.75h4.92v2.75H672.4v9.17a2.67,2.67,0,0,0,.67,1.92,2.36,2.36,0,0,0,1.67.66Zm19.42,2.59-2.17-8c-.25-.84-.75-2.84-1.5-5.92h-.08c-.59,2.83-1.09,4.75-1.42,5.92l-2.25,8h-4l-4.84-17.17h3.76l2.16,8.42a42.86,42.86,0,0,1,1,5.33h.09a20.22,20.22,0,0,1,.5-2.67,12.55,12.55,0,0,1,.58-2.16l2.67-9h4l2.5,9c.16.5.33,1.25.58,2.33a22.59,22.59,0,0,1,.42,2.42h.08a47.59,47.59,0,0,1,1.08-5.34l2.17-8.41h3.67l-4.84,17.17h-4.16Zm21.92,0-.75-2.42h-.09a8.24,8.24,0,0,1-2.5,2.17,8.76,8.76,0,0,1-3.25.58,5.66,5.66,0,0,1-4-1.33,5.2,5.2,0,0,1-1.41-3.84,4.68,4.68,0,0,1,1.91-4c1.25-.91,3.34-1.41,6-1.5l2.92-.08v-.92a3.35,3.35,0,0,0-.75-2.41,3,3,0,0,0-2.42-.84,8.66,8.66,0,0,0-2.5.34,20.14,20.14,0,0,0-2.33.91l-1.08-2.66a12.22,12.22,0,0,1,3.08-1.09,13.89,13.89,0,0,1,3.08-.33,7.5,7.5,0,0,1,4.92,1.42,5.65,5.65,0,0,1,1.67,4.41v11.59Zm-5.5-2.42a4.29,4.29,0,0,0,3.16-1.08,3.88,3.88,0,0,0,1.25-3.09v-1.5l-2.16.09a7.74,7.74,0,0,0-3.75.83,2.6,2.6,0,0,0-1.17,2.33,2.36,2.36,0,0,0,.67,1.75,2.42,2.42,0,0,0,2,.67Zm21.08-15a10,10,0,0,1,1.84.17l-.34,3.41a9.6,9.6,0,0,0-1.58-.16,4.83,4.83,0,0,0-3.58,1.41,5.17,5.17,0,0,0-1.34,3.75v9H723V513.75h2.83l.5,3.09h.17a7.6,7.6,0,0,1,2.16-2.42,4.52,4.52,0,0,1,3-1Zm11.67,17.75a8.5,8.5,0,0,1-6.25-2.33,8.86,8.86,0,0,1-2.25-6.42,9.49,9.49,0,0,1,2.08-6.58,7.36,7.36,0,0,1,5.76-2.42,7.22,7.22,0,0,1,5.41,2.08,8.19,8.19,0,0,1,1.92,5.67v2H738.58a5.86,5.86,0,0,0,1.33,3.83,4.56,4.56,0,0,0,3.59,1.34,10.12,10.12,0,0,0,2.83-.34,11.3,11.3,0,0,0,2.84-1v2.92a11.29,11.29,0,0,1-2.67.92,12,12,0,0,1-3.17.33Zm-.58-15a3.75,3.75,0,0,0-2.83,1.08,5.83,5.83,0,0,0-1.26,3.25h7.76a4.4,4.4,0,0,0-1.09-3.25,3,3,0,0,0-2.58-1.08Zm-366.23-39c0,4.84-1.17,8.59-3.58,11.09S367.1,492,362.52,492s-8-1.25-10.42-3.75-3.58-6.25-3.58-11.09,1.25-8.42,3.58-11,5.83-3.75,10.42-3.75,8.08,1.25,10.42,3.75,3.58,6.17,3.58,11Zm-19.84,0c0,5.59,2,8.34,5.84,8.34a5.22,5.22,0,0,0,4.42-2c1-1.34,1.41-3.5,1.41-6.34s-.5-5-1.5-6.33a5.09,5.09,0,0,0-4.33-2.09c-3.83,0-5.84,2.76-5.84,8.42Zm24.59-14.33h10q5.88,0,8.76,1.75a6,6,0,0,1,2.91,5.42,7,7,0,0,1-1.25,4.16,5.05,5.05,0,0,1-3.25,2.17v.17a6.45,6.45,0,0,1,3.84,2.41,6.81,6.81,0,0,1,1.25,4.25,7.47,7.47,0,0,1-2.92,6.17,13,13,0,0,1-8,2.25H381.44V462.74h-.17Zm7.84,11h2.33a4.69,4.69,0,0,0,2.58-.67,2.56,2.56,0,0,0,.92-2.08c0-1.59-1.25-2.42-3.67-2.42h-2.16v5.17Zm0,5.67v6.08h2.75c2.41,0,3.66-1.08,3.66-3.08a2.47,2.47,0,0,0-1-2.17,4.56,4.56,0,0,0-2.83-.83ZM427,482.83a8.51,8.51,0,0,1-1.34,4.75,8.87,8.87,0,0,1-3.91,3.25,13.73,13.73,0,0,1-6,1.17,19.68,19.68,0,0,1-4.83-.42,23.53,23.53,0,0,1-4-1.41v-6.92a24.4,24.4,0,0,0,4.67,1.75,17.66,17.66,0,0,0,4.41.58,4.48,4.48,0,0,0,2.59-.58,1.78,1.78,0,0,0,.83-1.5,1.44,1.44,0,0,0-.33-1,5.32,5.32,0,0,0-1-.92,34.31,34.31,0,0,0-3.84-1.83,16.24,16.24,0,0,1-4.25-2.5,7.5,7.5,0,0,1-2.08-2.75,9.54,9.54,0,0,1-.67-3.67,7.78,7.78,0,0,1,2.84-6.25c2-1.5,4.58-2.17,7.91-2.17a21.57,21.57,0,0,1,9.09,2.08l-2.42,6a16.65,16.65,0,0,0-7-1.84,3.12,3.12,0,0,0-2.17.58,1.81,1.81,0,0,0-.83,1.34,2,2,0,0,0,.83,1.5,36.46,36.46,0,0,0,4.76,2.42,12.51,12.51,0,0,1,5.16,3.58,6.93,6.93,0,0,1,1.59,4.75Z" transform="translate(-248.94 -460.43)"/><path class="cls-1" d="M287.51,461.49A37.51,37.51,0,1,1,250,499.08a37.46,37.46,0,0,1,37.51-37.59Z" transform="translate(-248.94 -460.43)"/><path class="cls-2" d="M287.51,534.17a35.09,35.09,0,1,1,35.09-35.09,35.09,35.09,0,0,1-35.09,35.09Zm-7.92-40.42a15.71,15.71,0,0,0,21.5-5.84,2.38,2.38,0,0,1,.75.09,20,20,0,0,1,7.59,2.25,20.84,20.84,0,0,1,5.91,4.92,20.16,20.16,0,0,1,4.09,9.5c-.17-.59-.33-1.25-.58-1.92a10.86,10.86,0,0,0-.84-1.67,5.49,5.49,0,0,0-.67-1.16,3,3,0,0,0-.41-.67,1.57,1.57,0,0,0-.34-.42l-.75-.91a3.89,3.89,0,0,0-.83-.84,1.92,1.92,0,0,1-.42-.33c-.16-.08-.25-.25-.41-.33l-.25-.25a1.48,1.48,0,0,0-.59-.42,5.22,5.22,0,0,1-.83-.58l-.5-.25-.5-.25a8.46,8.46,0,0,0-1-.5,3.35,3.35,0,0,0-1-.42c-.17-.08-.33-.08-.5-.17a1.22,1.22,0,0,1-.5-.16c-.17,0-.25-.09-.42-.09s-.41-.08-.66-.16l-1.09-.17a4.91,4.91,0,0,0-1.08-.08,4.75,4.75,0,0,0-1.17-.09A15.54,15.54,0,0,0,290.42,501a16.57,16.57,0,0,0-1.75,4.75,17.35,17.35,0,0,0,0,5.84,16.56,16.56,0,0,0,.75,2.66,6.17,6.17,0,0,0,.25.59c.09.16.17.41.25.58s.09.17.17.33.08.25.17.34v.33l-.09.08a.08.08,0,0,1-.08.09,17.86,17.86,0,0,1-4.67,5,18.77,18.77,0,0,1-8.58,3.58,18.48,18.48,0,0,1-5.25.08,22.44,22.44,0,0,1-5.42-1.5c.17.09.42.09.58.17s.42.08.59.17c.58.08,1.25.25,1.83.33a15.42,15.42,0,0,0,9.75-2.08,13.66,13.66,0,0,0,3.92-3.34,16.29,16.29,0,0,0,3.67-8.08,18.42,18.42,0,0,0-.09-4.75A15.74,15.74,0,0,0,272.34,493a5,5,0,0,0-1.09-.08h-.66a.09.09,0,0,1-.09-.09v-.16l-.08-.09a.08.08,0,0,0-.08-.08,19.3,19.3,0,0,1,8.33-25.42c-.16.08-.25.16-.42.25a13.34,13.34,0,0,0-1.25,1c-.33.33-.75.66-1.08,1a7.77,7.77,0,0,0-.75.83l-.25.25a4.44,4.44,0,0,0-.75,1.09l-.75,1.25a7.39,7.39,0,0,0-.58,1.25l-.5,1.25c-.09.25-.09.41-.17.66a5.39,5.39,0,0,1-.17.67c-.08.33-.16.83-.25,1.17v.16a7.54,7.54,0,0,0-.08,1.34,15.5,15.5,0,0,0,3.92,11.08,15.27,15.27,0,0,0,3.58,3c.09,0,.17.09.25.09.09.25.17.25.17.33Zm-.5-26.92c-.08.08-.17.08-.33.16.08-.08.16-.08.33-.16Z" transform="translate(-248.94 -460.43)"/></svg>