<svg width="499" height="315" viewBox="0 0 499 315" fill="none" xmlns="http://www.w3.org/2000/svg">
<path d="M49 7.99999C49 3.58171 52.5817 0 57 0H441C445.418 0 449 3.58172 449 8V300H49V7.99999Z" fill="#3A5895"/>
<rect y="300" width="499" height="15" fill="#424242"/>
<line x1="49" y1="19.5" x2="449" y2="19.5" stroke="#E8F9F0"/>
<circle cx="59" cy="9" r="2" fill="#E8F9F0"/>
<circle cx="67" cy="9" r="2" fill="#E8F9F0"/>
<circle cx="75" cy="9" r="2" fill="#E8F9F0"/>
<rect x="89" y="83" width="320" height="217" fill="#5BA5C3"/>
<path d="M138.48 146L135.9 132H137.6L139.7 143.56H139.74L143.22 132H144.96L148.46 143.56H148.5L150.56 132H152.26L149.68 146H147.64L144.1 134.4H144.06L140.54 146H138.48ZM154.864 146V131.4H156.504V136.46H156.544C156.837 136.06 157.264 135.733 157.824 135.48C158.397 135.227 159.004 135.1 159.644 135.1C160.777 135.1 161.691 135.447 162.384 136.14C163.091 136.82 163.444 137.8 163.444 139.08V146H161.804V139.52C161.804 137.573 160.984 136.6 159.344 136.6C158.477 136.6 157.784 136.853 157.264 137.36C156.757 137.867 156.504 138.527 156.504 139.34V146H154.864ZM172.899 146V144.84H172.859C172.659 145.187 172.279 145.52 171.719 145.84C171.159 146.147 170.459 146.3 169.619 146.3C168.446 146.3 167.552 146.013 166.939 145.44C166.339 144.867 166.039 144.147 166.039 143.28C166.039 142.4 166.306 141.713 166.839 141.22C167.386 140.713 168.306 140.293 169.599 139.96C170.079 139.84 170.432 139.747 170.659 139.68C170.899 139.613 171.172 139.527 171.479 139.42C171.786 139.3 172.006 139.187 172.139 139.08C172.272 138.973 172.386 138.84 172.479 138.68C172.586 138.52 172.639 138.34 172.639 138.14C172.639 137.687 172.452 137.313 172.079 137.02C171.719 136.713 171.166 136.56 170.419 136.56C169.006 136.56 168.146 137.26 167.839 138.66L166.359 138.24C166.532 137.307 166.966 136.553 167.659 135.98C168.352 135.393 169.252 135.1 170.359 135.1C171.586 135.1 172.552 135.407 173.259 136.02C173.979 136.62 174.339 137.567 174.339 138.86V146H172.899ZM169.979 141.22C169.072 141.473 168.452 141.747 168.119 142.04C167.799 142.333 167.639 142.713 167.639 143.18C167.639 144.287 168.339 144.84 169.739 144.84C170.699 144.84 171.439 144.627 171.959 144.2C172.479 143.76 172.739 143.227 172.739 142.6V139.96H172.699C172.512 140.347 171.606 140.767 169.979 141.22ZM177.92 142.92V136.86H176.44V135.4H177.96V132.8H179.52V135.4H182.14V136.86H179.54V142.72C179.54 143.347 179.627 143.787 179.8 144.04C179.973 144.293 180.32 144.42 180.84 144.42H181.64V146H180.76C179.76 146 179.033 145.747 178.58 145.24C178.14 144.72 177.92 143.947 177.92 142.92ZM184.947 136.42V135.52C185.587 135.4 185.907 134.993 185.907 134.3H184.947V131.94H187.307V134C187.307 135.507 186.52 136.313 184.947 136.42ZM189.494 142.4L191.034 142.1C191.234 143.953 192.214 144.88 193.974 144.88C194.814 144.88 195.44 144.727 195.854 144.42C196.28 144.113 196.494 143.707 196.494 143.2C196.494 142.667 196.294 142.267 195.894 142C195.507 141.733 194.687 141.427 193.434 141.08C192.127 140.72 191.207 140.313 190.674 139.86C190.14 139.407 189.874 138.793 189.874 138.02C189.874 137.233 190.2 136.553 190.854 135.98C191.507 135.393 192.407 135.1 193.554 135.1C194.714 135.1 195.634 135.38 196.314 135.94C196.994 136.487 197.447 137.22 197.674 138.14L196.254 138.52C195.84 137.173 194.94 136.5 193.554 136.5C192.86 136.5 192.327 136.647 191.954 136.94C191.58 137.233 191.394 137.58 191.394 137.98C191.394 138.42 191.574 138.747 191.934 138.96C192.294 139.173 193.12 139.467 194.414 139.84C195.787 140.227 196.727 140.673 197.234 141.18C197.754 141.673 198.02 142.347 198.034 143.2C198.034 144.04 197.694 144.767 197.014 145.38C196.347 145.993 195.34 146.3 193.994 146.3C192.594 146.3 191.52 145.94 190.774 145.22C190.04 144.487 189.614 143.547 189.494 142.4ZM206.186 150.5L208.306 144.88L204.326 135.4H206.046L209.046 142.72H209.086L211.786 135.4H213.466L207.766 150.5H206.186ZM219.492 144.82C220.385 144.82 221.125 144.46 221.712 143.74C222.312 143.007 222.612 141.993 222.612 140.7C222.612 139.407 222.319 138.4 221.732 137.68C221.145 136.947 220.399 136.58 219.492 136.58C218.559 136.58 217.792 136.94 217.192 137.66C216.592 138.367 216.292 139.38 216.292 140.7C216.292 142.02 216.592 143.04 217.192 143.76C217.792 144.467 218.559 144.82 219.492 144.82ZM219.492 146.3C218.092 146.3 216.939 145.807 216.032 144.82C215.125 143.833 214.672 142.46 214.672 140.7C214.672 138.967 215.139 137.6 216.072 136.6C217.005 135.6 218.145 135.1 219.492 135.1C220.825 135.1 221.945 135.6 222.852 136.6C223.772 137.6 224.232 138.967 224.232 140.7C224.232 142.46 223.785 143.833 222.892 144.82C221.999 145.807 220.865 146.3 219.492 146.3ZM226.834 142.3V135.4H228.474V142.06C228.474 143.047 228.661 143.747 229.034 144.16C229.421 144.573 230.054 144.78 230.934 144.78C231.734 144.78 232.348 144.533 232.774 144.04C233.201 143.547 233.414 142.86 233.414 141.98V135.4H235.034V146H233.434V144.98H233.394C233.328 145.073 233.228 145.193 233.094 145.34C232.961 145.487 232.648 145.687 232.154 145.94C231.674 146.18 231.148 146.3 230.574 146.3C229.401 146.3 228.481 145.967 227.814 145.3C227.161 144.633 226.834 143.633 226.834 142.3ZM238.438 146V135.4H239.998V136.54H240.038C240.252 136.113 240.565 135.787 240.978 135.56C241.392 135.333 241.812 135.22 242.238 135.22C242.398 135.22 242.552 135.24 242.698 135.28C242.858 135.307 242.978 135.333 243.058 135.36L243.158 135.42L242.858 137.04C242.658 136.933 242.378 136.88 242.018 136.88C241.338 136.88 240.845 137.107 240.538 137.56C240.232 138 240.078 138.713 240.078 139.7V146H238.438ZM144.04 162.74L145.36 163.6C144.96 164.373 144.387 165.02 143.64 165.54C142.907 166.047 142 166.3 140.92 166.3C139.48 166.3 138.3 165.793 137.38 164.78C136.46 163.753 136 162.393 136 160.7C136 159.007 136.447 157.653 137.34 156.64C138.247 155.613 139.413 155.1 140.84 155.1C142.253 155.1 143.4 155.6 144.28 156.6C145.16 157.6 145.6 158.967 145.6 160.7V161.18H137.64C137.653 162.193 137.933 163.053 138.48 163.76C139.04 164.467 139.84 164.82 140.88 164.82C141.28 164.82 141.653 164.767 142 164.66C142.347 164.54 142.613 164.427 142.8 164.32C142.987 164.2 143.18 164.013 143.38 163.76C143.593 163.493 143.72 163.32 143.76 163.24C143.813 163.16 143.907 162.993 144.04 162.74ZM137.68 159.88H143.98C143.953 158.987 143.687 158.213 143.18 157.56C142.673 156.907 141.893 156.58 140.84 156.58C139.813 156.58 139.033 156.933 138.5 157.64C137.967 158.333 137.693 159.08 137.68 159.88ZM148.302 166V155.4H149.782V156.42H149.822C150.075 156.033 150.448 155.72 150.942 155.48C151.435 155.227 151.962 155.1 152.522 155.1C153.188 155.1 153.755 155.253 154.222 155.56C154.702 155.853 155.068 156.22 155.322 156.66H155.362C155.615 156.233 156.002 155.867 156.522 155.56C157.055 155.253 157.662 155.1 158.342 155.1C159.462 155.1 160.348 155.433 161.002 156.1C161.668 156.753 162.002 157.647 162.002 158.78V166H160.422V159.28C160.422 157.493 159.702 156.6 158.262 156.6C157.528 156.6 156.955 156.827 156.542 157.28C156.142 157.72 155.942 158.34 155.942 159.14V166H154.362V159.28C154.362 157.493 153.642 156.6 152.202 156.6C151.428 156.6 150.855 156.84 150.482 157.32C150.108 157.787 149.922 158.393 149.922 159.14V166H148.302ZM171.454 166V164.84H171.414C171.214 165.187 170.834 165.52 170.274 165.84C169.714 166.147 169.014 166.3 168.174 166.3C167 166.3 166.107 166.013 165.494 165.44C164.894 164.867 164.594 164.147 164.594 163.28C164.594 162.4 164.86 161.713 165.394 161.22C165.94 160.713 166.86 160.293 168.154 159.96C168.634 159.84 168.987 159.747 169.214 159.68C169.454 159.613 169.727 159.527 170.034 159.42C170.34 159.3 170.56 159.187 170.694 159.08C170.827 158.973 170.94 158.84 171.034 158.68C171.14 158.52 171.194 158.34 171.194 158.14C171.194 157.687 171.007 157.313 170.634 157.02C170.274 156.713 169.72 156.56 168.974 156.56C167.56 156.56 166.7 157.26 166.394 158.66L164.914 158.24C165.087 157.307 165.52 156.553 166.214 155.98C166.907 155.393 167.807 155.1 168.914 155.1C170.14 155.1 171.107 155.407 171.814 156.02C172.534 156.62 172.894 157.567 172.894 158.86V166H171.454ZM168.534 161.22C167.627 161.473 167.007 161.747 166.674 162.04C166.354 162.333 166.194 162.713 166.194 163.18C166.194 164.287 166.894 164.84 168.294 164.84C169.254 164.84 169.994 164.627 170.514 164.2C171.034 163.76 171.294 163.227 171.294 162.6V159.96H171.254C171.067 160.347 170.16 160.767 168.534 161.22ZM176.215 166V155.4H177.855V166H176.215ZM176.095 153.26V151.4H177.975V153.26H176.095ZM181.368 166V151.4H183.028V166H181.368ZM186.627 168.12V167.22C187.267 167.1 187.587 166.693 187.587 166H186.627V163.64H188.987V165.7C188.987 167.207 188.2 168.013 186.627 168.12ZM194.582 163L196.182 162.56C196.302 163.227 196.502 163.76 196.782 164.16C197.062 164.56 197.482 164.753 198.042 164.74C198.669 164.727 199.095 164.547 199.322 164.2C199.562 163.84 199.682 163.22 199.682 162.34V152H201.322V162.42C201.322 163.74 201.049 164.713 200.502 165.34C199.969 165.953 199.142 166.273 198.022 166.3C197.035 166.313 196.255 166.02 195.682 165.42C195.109 164.807 194.742 164 194.582 163ZM208.945 164.82C209.838 164.82 210.578 164.46 211.165 163.74C211.765 163.007 212.065 161.993 212.065 160.7C212.065 159.407 211.772 158.4 211.185 157.68C210.598 156.947 209.852 156.58 208.945 156.58C208.012 156.58 207.245 156.94 206.645 157.66C206.045 158.367 205.745 159.38 205.745 160.7C205.745 162.02 206.045 163.04 206.645 163.76C207.245 164.467 208.012 164.82 208.945 164.82ZM208.945 166.3C207.545 166.3 206.392 165.807 205.485 164.82C204.578 163.833 204.125 162.46 204.125 160.7C204.125 158.967 204.592 157.6 205.525 156.6C206.458 155.6 207.598 155.1 208.945 155.1C210.278 155.1 211.398 155.6 212.305 156.6C213.225 157.6 213.685 158.967 213.685 160.7C213.685 162.46 213.238 163.833 212.345 164.82C211.452 165.807 210.318 166.3 208.945 166.3ZM216.388 166V155.4H217.948V156.54H217.988C218.201 156.113 218.514 155.787 218.928 155.56C219.341 155.333 219.761 155.22 220.188 155.22C220.348 155.22 220.501 155.24 220.648 155.28C220.808 155.307 220.928 155.333 221.008 155.36L221.108 155.42L220.808 157.04C220.608 156.933 220.328 156.88 219.967 156.88C219.288 156.88 218.794 157.107 218.488 157.56C218.181 158 218.028 158.713 218.028 159.7V166H216.388ZM230.279 162.48V159.2C230.279 158.533 230.033 157.933 229.539 157.4C229.046 156.853 228.386 156.58 227.559 156.58C226.506 156.58 225.706 156.94 225.159 157.66C224.613 158.38 224.339 159.393 224.339 160.7C224.339 162.007 224.613 163.02 225.159 163.74C225.706 164.46 226.506 164.82 227.559 164.82C228.333 164.82 228.979 164.587 229.499 164.12C230.019 163.653 230.279 163.107 230.279 162.48ZM230.439 166V164.98H230.399C230.119 165.313 229.706 165.62 229.159 165.9C228.626 166.167 228.006 166.3 227.299 166.3C225.899 166.3 224.779 165.793 223.939 164.78C223.113 163.767 222.699 162.407 222.699 160.7C222.699 159.007 223.133 157.653 223.999 156.64C224.879 155.613 225.979 155.1 227.299 155.1C228.513 155.1 229.493 155.54 230.239 156.42H230.279V151.4H231.919V166H230.439ZM241.473 166V164.84H241.433C241.233 165.187 240.853 165.52 240.293 165.84C239.733 166.147 239.033 166.3 238.193 166.3C237.02 166.3 236.127 166.013 235.513 165.44C234.913 164.867 234.613 164.147 234.613 163.28C234.613 162.4 234.88 161.713 235.413 161.22C235.96 160.713 236.88 160.293 238.173 159.96C238.653 159.84 239.007 159.747 239.233 159.68C239.473 159.613 239.747 159.527 240.053 159.42C240.36 159.3 240.58 159.187 240.713 159.08C240.847 158.973 240.96 158.84 241.053 158.68C241.16 158.52 241.213 158.34 241.213 158.14C241.213 157.687 241.027 157.313 240.653 157.02C240.293 156.713 239.74 156.56 238.993 156.56C237.58 156.56 236.72 157.26 236.413 158.66L234.933 158.24C235.107 157.307 235.54 156.553 236.233 155.98C236.927 155.393 237.827 155.1 238.933 155.1C240.16 155.1 241.127 155.407 241.833 156.02C242.553 156.62 242.913 157.567 242.913 158.86V166H241.473ZM238.553 161.22C237.647 161.473 237.027 161.747 236.693 162.04C236.373 162.333 236.213 162.713 236.213 163.18C236.213 164.287 236.913 164.84 238.313 164.84C239.273 164.84 240.013 164.627 240.533 164.2C241.053 163.76 241.313 163.227 241.313 162.6V159.96H241.273C241.087 160.347 240.18 160.767 238.553 161.22ZM246.114 166V155.4H247.714V156.42H247.754C248.047 156.033 248.467 155.72 249.014 155.48C249.561 155.227 250.134 155.1 250.734 155.1C251.881 155.1 252.801 155.453 253.494 156.16C254.201 156.867 254.554 157.827 254.554 159.04V166H252.934V159.56C252.934 157.587 252.121 156.6 250.494 156.6C249.667 156.6 249.001 156.833 248.494 157.3C248.001 157.767 247.754 158.413 247.754 159.24V166H246.114ZM259.872 162.2V161.1C259.872 160.62 259.986 160.207 260.212 159.86C260.452 159.513 260.892 159.1 261.532 158.62C261.999 158.287 262.312 158.053 262.472 157.92C262.646 157.787 262.872 157.58 263.152 157.3C263.446 157.007 263.639 156.72 263.732 156.44C263.839 156.16 263.892 155.84 263.892 155.48C263.892 154.893 263.686 154.373 263.272 153.92C262.859 153.453 262.219 153.22 261.352 153.22C259.566 153.22 258.606 154.233 258.472 156.26L256.852 156.1C256.879 154.793 257.286 153.733 258.072 152.92C258.859 152.107 259.966 151.7 261.392 151.7C262.606 151.7 263.599 152.053 264.372 152.76C265.159 153.453 265.552 154.34 265.552 155.42C265.552 156.033 265.446 156.573 265.232 157.04C265.019 157.493 264.792 157.833 264.552 158.06C264.312 158.287 263.919 158.607 263.372 159.02C263.239 159.127 263.039 159.28 262.772 159.48C262.519 159.68 262.352 159.813 262.272 159.88C262.192 159.947 262.079 160.053 261.932 160.2C261.786 160.333 261.686 160.44 261.632 160.52C261.592 160.6 261.552 160.707 261.512 160.84C261.472 160.973 261.452 161.113 261.452 161.26V162.2H259.872ZM259.552 166V163.7H261.892V166H259.552Z" fill="white"/>
<path d="M135.4 207.12V205.872H135.672C135.917 205.872 136.099 205.808 136.216 205.68C136.333 205.563 136.392 205.328 136.392 204.976V195.52H137.704V205.008C137.704 205.776 137.555 206.32 137.256 206.64C136.957 206.96 136.515 207.12 135.928 207.12H135.4ZM136.28 193.808V192.32H137.768V193.808H136.28ZM143.781 203.056C144.496 203.056 145.088 202.768 145.557 202.192C146.037 201.605 146.277 200.795 146.277 199.76C146.277 198.725 146.042 197.92 145.573 197.344C145.104 196.757 144.506 196.464 143.781 196.464C143.034 196.464 142.421 196.752 141.941 197.328C141.461 197.893 141.221 198.704 141.221 199.76C141.221 200.816 141.461 201.632 141.941 202.208C142.421 202.773 143.034 203.056 143.781 203.056ZM143.781 204.24C142.661 204.24 141.738 203.845 141.013 203.056C140.288 202.267 139.925 201.168 139.925 199.76C139.925 198.373 140.298 197.28 141.045 196.48C141.792 195.68 142.704 195.28 143.781 195.28C144.848 195.28 145.744 195.68 146.469 196.48C147.205 197.28 147.573 198.373 147.573 199.76C147.573 201.168 147.216 202.267 146.501 203.056C145.786 203.845 144.88 204.24 143.781 204.24ZM149.735 204V195.52H150.983V196.432H151.015C151.186 196.091 151.436 195.829 151.767 195.648C152.098 195.467 152.434 195.376 152.775 195.376C152.903 195.376 153.026 195.392 153.143 195.424C153.271 195.445 153.367 195.467 153.431 195.488L153.511 195.536L153.271 196.832C153.111 196.747 152.887 196.704 152.599 196.704C152.055 196.704 151.66 196.885 151.415 197.248C151.17 197.6 151.047 198.171 151.047 198.96V204H149.735ZM160.848 201.184V198.56C160.848 198.027 160.651 197.547 160.256 197.12C159.862 196.683 159.334 196.464 158.672 196.464C157.83 196.464 157.19 196.752 156.752 197.328C156.315 197.904 156.096 198.715 156.096 199.76C156.096 200.805 156.315 201.616 156.752 202.192C157.19 202.768 157.83 203.056 158.672 203.056C159.291 203.056 159.808 202.869 160.224 202.496C160.64 202.123 160.848 201.685 160.848 201.184ZM160.976 204V203.184H160.944C160.72 203.451 160.39 203.696 159.952 203.92C159.526 204.133 159.03 204.24 158.464 204.24C157.344 204.24 156.448 203.835 155.776 203.024C155.115 202.213 154.784 201.125 154.784 199.76C154.784 198.405 155.131 197.323 155.824 196.512C156.528 195.691 157.408 195.28 158.464 195.28C159.435 195.28 160.219 195.632 160.816 196.336H160.848V192.32H162.16V204H160.976ZM169.804 204V203.072H169.772C169.612 203.349 169.308 203.616 168.86 203.872C168.412 204.117 167.852 204.24 167.18 204.24C166.241 204.24 165.526 204.011 165.036 203.552C164.556 203.093 164.316 202.517 164.316 201.824C164.316 201.12 164.529 200.571 164.956 200.176C165.393 199.771 166.129 199.435 167.164 199.168C167.548 199.072 167.83 198.997 168.012 198.944C168.204 198.891 168.422 198.821 168.668 198.736C168.913 198.64 169.089 198.549 169.196 198.464C169.302 198.379 169.393 198.272 169.468 198.144C169.553 198.016 169.596 197.872 169.596 197.712C169.596 197.349 169.446 197.051 169.148 196.816C168.86 196.571 168.417 196.448 167.82 196.448C166.689 196.448 166.001 197.008 165.756 198.128L164.572 197.792C164.71 197.045 165.057 196.443 165.612 195.984C166.166 195.515 166.886 195.28 167.772 195.28C168.753 195.28 169.526 195.525 170.092 196.016C170.668 196.496 170.956 197.253 170.956 198.288V204H169.804ZM167.468 200.176C166.742 200.379 166.246 200.597 165.98 200.832C165.724 201.067 165.596 201.371 165.596 201.744C165.596 202.629 166.156 203.072 167.276 203.072C168.044 203.072 168.636 202.901 169.052 202.56C169.468 202.208 169.676 201.781 169.676 201.28V199.168H169.644C169.494 199.477 168.769 199.813 167.468 200.176ZM173.516 204V195.52H174.796V196.336H174.828C175.063 196.027 175.399 195.776 175.836 195.584C176.274 195.381 176.732 195.28 177.212 195.28C178.13 195.28 178.866 195.563 179.42 196.128C179.986 196.693 180.268 197.461 180.268 198.432V204H178.972V198.848C178.972 197.269 178.322 196.48 177.02 196.48C176.359 196.48 175.826 196.667 175.42 197.04C175.026 197.413 174.828 197.931 174.828 198.592V204H173.516ZM188.683 199.616V198.112H188.651C188.598 198.272 188.358 198.411 187.931 198.528L187.019 198.784C186.667 198.88 186.416 199.003 186.267 199.152C186.118 199.301 186.043 199.525 186.043 199.824C186.043 200.475 186.491 200.8 187.387 200.8C187.728 200.8 188.027 200.699 188.283 200.496C188.55 200.293 188.683 200 188.683 199.616ZM189.675 202.752L190.107 203.472C189.84 203.664 189.462 203.84 188.971 204C188.491 204.16 187.979 204.24 187.435 204.24C185.814 204.24 184.571 203.712 183.707 202.656C182.854 201.589 182.427 200.192 182.427 198.464C182.427 196.757 182.886 195.349 183.803 194.24C184.72 193.131 185.963 192.576 187.531 192.576C189.088 192.576 190.299 193.115 191.163 194.192C192.027 195.269 192.459 196.64 192.459 198.304C192.459 199.531 192.267 200.405 191.883 200.928C191.499 201.44 190.95 201.696 190.235 201.696C189.584 201.696 189.126 201.456 188.859 200.976H188.827C188.518 201.456 187.984 201.696 187.227 201.696C186.598 201.696 186.08 201.531 185.675 201.2C185.27 200.859 185.067 200.405 185.067 199.84C185.067 199.349 185.2 198.96 185.467 198.672C185.744 198.384 186.171 198.16 186.747 198L187.595 197.76C188 197.653 188.283 197.552 188.443 197.456C188.603 197.349 188.683 197.184 188.683 196.96C188.683 196.693 188.582 196.475 188.379 196.304C188.187 196.123 187.894 196.032 187.499 196.032C186.795 196.032 186.358 196.416 186.187 197.184L185.323 196.976C185.387 196.421 185.616 195.979 186.011 195.648C186.416 195.317 186.902 195.152 187.467 195.152C188.107 195.152 188.624 195.323 189.019 195.664C189.414 195.995 189.611 196.485 189.611 197.136V200.176C189.611 200.411 189.659 200.581 189.755 200.688C189.862 200.795 190.032 200.848 190.267 200.848C190.726 200.848 191.062 200.645 191.275 200.24C191.488 199.824 191.595 199.189 191.595 198.336C191.595 196.875 191.248 195.685 190.555 194.768C189.872 193.851 188.864 193.392 187.531 193.392C186.198 193.392 185.158 193.867 184.411 194.816C183.675 195.755 183.307 196.971 183.307 198.464C183.307 199.947 183.654 201.141 184.347 202.048C185.04 202.955 186.07 203.408 187.435 203.408C188.267 203.408 189.014 203.189 189.675 202.752ZM200.576 201.392L201.632 202.08C201.312 202.699 200.853 203.216 200.256 203.632C199.669 204.037 198.944 204.24 198.08 204.24C196.928 204.24 195.984 203.835 195.248 203.024C194.512 202.203 194.144 201.115 194.144 199.76C194.144 198.405 194.501 197.323 195.216 196.512C195.941 195.691 196.874 195.28 198.016 195.28C199.146 195.28 200.064 195.68 200.768 196.48C201.472 197.28 201.824 198.373 201.824 199.76V200.144H195.456C195.466 200.955 195.69 201.643 196.128 202.208C196.576 202.773 197.216 203.056 198.048 203.056C198.368 203.056 198.666 203.013 198.944 202.928C199.221 202.832 199.434 202.741 199.584 202.656C199.733 202.56 199.888 202.411 200.048 202.208C200.218 201.995 200.32 201.856 200.352 201.792C200.394 201.728 200.469 201.595 200.576 201.392ZM195.488 199.104H200.528C200.506 198.389 200.293 197.771 199.888 197.248C199.482 196.725 198.858 196.464 198.016 196.464C197.194 196.464 196.57 196.747 196.144 197.312C195.717 197.867 195.498 198.464 195.488 199.104ZM203.985 204V195.52H205.169V196.336H205.201C205.404 196.027 205.702 195.776 206.097 195.584C206.492 195.381 206.913 195.28 207.361 195.28C207.894 195.28 208.348 195.403 208.721 195.648C209.105 195.883 209.398 196.176 209.601 196.528H209.633C209.836 196.187 210.145 195.893 210.561 195.648C210.988 195.403 211.473 195.28 212.017 195.28C212.913 195.28 213.622 195.547 214.145 196.08C214.678 196.603 214.945 197.317 214.945 198.224V204H213.681V198.624C213.681 197.195 213.105 196.48 211.953 196.48C211.366 196.48 210.908 196.661 210.577 197.024C210.257 197.376 210.097 197.872 210.097 198.512V204H208.833V198.624C208.833 197.195 208.257 196.48 207.105 196.48C206.486 196.48 206.028 196.672 205.729 197.056C205.43 197.429 205.281 197.915 205.281 198.512V204H203.985ZM222.507 204V203.072H222.475C222.315 203.349 222.011 203.616 221.563 203.872C221.115 204.117 220.555 204.24 219.883 204.24C218.944 204.24 218.229 204.011 217.739 203.552C217.259 203.093 217.019 202.517 217.019 201.824C217.019 201.12 217.232 200.571 217.659 200.176C218.096 199.771 218.832 199.435 219.867 199.168C220.251 199.072 220.533 198.997 220.715 198.944C220.907 198.891 221.125 198.821 221.371 198.736C221.616 198.64 221.792 198.549 221.899 198.464C222.005 198.379 222.096 198.272 222.171 198.144C222.256 198.016 222.299 197.872 222.299 197.712C222.299 197.349 222.149 197.051 221.851 196.816C221.563 196.571 221.12 196.448 220.523 196.448C219.392 196.448 218.704 197.008 218.459 198.128L217.275 197.792C217.413 197.045 217.76 196.443 218.315 195.984C218.869 195.515 219.589 195.28 220.475 195.28C221.456 195.28 222.229 195.525 222.795 196.016C223.371 196.496 223.659 197.253 223.659 198.288V204H222.507ZM220.171 200.176C219.445 200.379 218.949 200.597 218.683 200.832C218.427 201.067 218.299 201.371 218.299 201.744C218.299 202.629 218.859 203.072 219.979 203.072C220.747 203.072 221.339 202.901 221.755 202.56C222.171 202.208 222.379 201.781 222.379 201.28V199.168H222.347C222.197 199.477 221.472 199.813 220.171 200.176ZM226.315 204V195.52H227.627V204H226.315ZM226.219 193.808V192.32H227.723V193.808H226.219ZM230.438 204V192.32H231.766V204H230.438ZM234.645 204V202.112H236.533V204H234.645ZM244.975 200.752L246.239 201.008C246.1 201.989 245.711 202.773 245.071 203.36C244.431 203.947 243.642 204.24 242.703 204.24C241.562 204.24 240.634 203.845 239.919 203.056C239.204 202.256 238.847 201.157 238.847 199.76C238.847 198.384 239.215 197.296 239.951 196.496C240.687 195.685 241.604 195.28 242.703 195.28C243.61 195.28 244.378 195.568 245.007 196.144C245.647 196.72 246.036 197.467 246.175 198.384L244.943 198.64C244.815 198.011 244.57 197.493 244.207 197.088C243.844 196.672 243.343 196.464 242.703 196.464C241.935 196.464 241.316 196.757 240.847 197.344C240.378 197.92 240.143 198.725 240.143 199.76C240.143 200.784 240.372 201.589 240.831 202.176C241.29 202.763 241.919 203.056 242.719 203.056C243.348 203.056 243.86 202.832 244.255 202.384C244.65 201.925 244.89 201.381 244.975 200.752ZM251.609 203.056C252.324 203.056 252.916 202.768 253.385 202.192C253.865 201.605 254.105 200.795 254.105 199.76C254.105 198.725 253.87 197.92 253.401 197.344C252.932 196.757 252.334 196.464 251.609 196.464C250.862 196.464 250.249 196.752 249.769 197.328C249.289 197.893 249.049 198.704 249.049 199.76C249.049 200.816 249.289 201.632 249.769 202.208C250.249 202.773 250.862 203.056 251.609 203.056ZM251.609 204.24C250.489 204.24 249.566 203.845 248.841 203.056C248.116 202.267 247.753 201.168 247.753 199.76C247.753 198.373 248.126 197.28 248.873 196.48C249.62 195.68 250.532 195.28 251.609 195.28C252.676 195.28 253.572 195.68 254.297 196.48C255.033 197.28 255.401 198.373 255.401 199.76C255.401 201.168 255.044 202.267 254.329 203.056C253.614 203.845 252.708 204.24 251.609 204.24ZM257.563 204V195.52H258.747V196.336H258.779C258.982 196.027 259.28 195.776 259.675 195.584C260.07 195.381 260.491 195.28 260.939 195.28C261.472 195.28 261.926 195.403 262.299 195.648C262.683 195.883 262.976 196.176 263.179 196.528H263.211C263.414 196.187 263.723 195.893 264.139 195.648C264.566 195.403 265.051 195.28 265.595 195.28C266.491 195.28 267.2 195.547 267.723 196.08C268.256 196.603 268.523 197.317 268.523 198.224V204H267.259V198.624C267.259 197.195 266.683 196.48 265.531 196.48C264.944 196.48 264.486 196.661 264.155 197.024C263.835 197.376 263.675 197.872 263.675 198.512V204H262.411V198.624C262.411 197.195 261.835 196.48 260.683 196.48C260.064 196.48 259.606 196.672 259.307 197.056C259.008 197.429 258.859 197.915 258.859 198.512V204H257.563Z" fill="white"/>
<rect x="135" y="233" width="96" height="31" rx="10" fill="#3B3F62"/>
<path d="M156.64 249.224L158.624 248.792C158.773 249.741 159.024 250.429 159.376 250.856C159.739 251.283 160.331 251.496 161.152 251.496C161.835 251.496 162.368 251.363 162.752 251.096C163.136 250.819 163.328 250.445 163.328 249.976C163.328 249.507 163.147 249.139 162.784 248.872C162.432 248.605 161.627 248.28 160.368 247.896C159.195 247.533 158.352 247.091 157.84 246.568C157.339 246.045 157.088 245.411 157.088 244.664C157.088 243.811 157.419 243.08 158.08 242.472C158.741 241.864 159.637 241.56 160.768 241.56C161.824 241.56 162.725 241.821 163.472 242.344C164.219 242.856 164.677 243.619 164.848 244.632L163.008 245.08C162.859 244.525 162.613 244.093 162.272 243.784C161.931 243.475 161.429 243.32 160.768 243.32C160.16 243.32 159.701 243.443 159.392 243.688C159.093 243.933 158.944 244.253 158.944 244.648C158.944 245.011 159.109 245.299 159.44 245.512C159.771 245.725 160.549 246.04 161.776 246.456C163.099 246.904 163.995 247.373 164.464 247.864C164.944 248.355 165.184 249.021 165.184 249.864C165.184 250.835 164.816 251.64 164.08 252.28C163.355 252.92 162.373 253.24 161.136 253.24C159.845 253.24 158.816 252.904 158.048 252.232C157.28 251.549 156.811 250.547 156.64 249.224ZM166.776 250.008V244.52H168.6V249.8C168.6 250.429 168.712 250.872 168.936 251.128C169.171 251.373 169.555 251.496 170.088 251.496C170.622 251.496 171.043 251.347 171.352 251.048C171.672 250.749 171.832 250.291 171.832 249.672V244.52H173.656V253H171.896V252.184H171.864C171.363 252.888 170.632 253.24 169.672 253.24C168.702 253.24 167.976 252.957 167.496 252.392C167.016 251.827 166.776 251.032 166.776 250.008ZM177.883 247.832V249.752C177.883 250.264 178.059 250.701 178.411 251.064C178.774 251.416 179.249 251.592 179.835 251.592C180.518 251.592 181.041 251.352 181.403 250.872C181.777 250.381 181.963 249.677 181.963 248.76C181.963 247.843 181.777 247.144 181.403 246.664C181.041 246.173 180.518 245.928 179.835 245.928C179.238 245.928 178.763 246.115 178.411 246.488C178.059 246.861 177.883 247.309 177.883 247.832ZM176.059 253V241.32H177.883V245.336H177.915C178.491 244.632 179.233 244.28 180.139 244.28C181.195 244.28 182.065 244.691 182.747 245.512C183.441 246.333 183.787 247.416 183.787 248.76C183.787 250.125 183.451 251.213 182.779 252.024C182.118 252.835 181.227 253.24 180.107 253.24C179.19 253.24 178.417 252.888 177.787 252.184H177.755V253H176.059ZM185.622 253V244.52H187.286V245.336H187.318C187.521 245.027 187.809 244.776 188.182 244.584C188.566 244.381 188.977 244.28 189.414 244.28C189.894 244.28 190.326 244.392 190.71 244.616C191.094 244.829 191.387 245.107 191.59 245.448H191.622C191.835 245.117 192.145 244.84 192.55 244.616C192.955 244.392 193.403 244.28 193.894 244.28C194.865 244.28 195.633 244.547 196.198 245.08C196.774 245.613 197.062 246.323 197.062 247.208V253H195.382V247.624C195.382 246.515 194.859 245.96 193.814 245.96C193.302 245.96 192.907 246.104 192.63 246.392C192.363 246.669 192.23 247.043 192.23 247.512V253H190.534V247.624C190.534 247.112 190.401 246.707 190.134 246.408C189.878 246.109 189.494 245.96 188.982 245.96C188.459 245.96 188.065 246.104 187.798 246.392C187.531 246.68 187.398 247.053 187.398 247.512V253H185.622ZM199.42 253V244.52H201.244V253H199.42ZM199.388 243.128V241.32H201.276V243.128H199.388ZM204.069 250.168V246.088H202.789V244.52H204.117V242.44H205.845V244.52H207.973V246.088H205.861V249.976C205.861 250.445 205.93 250.776 206.069 250.968C206.218 251.149 206.517 251.24 206.965 251.24H207.637V253H206.821C205.797 253 205.082 252.776 204.677 252.328C204.271 251.869 204.069 251.149 204.069 250.168Z" fill="white"/>
</svg>
