<svg width="200" height="129" viewBox="0 0 200 129" fill="none" xmlns="http://www.w3.org/2000/svg">
<rect width="200" height="129" rx="15" fill="white"/>
<path d="M10 39H190" stroke="#EBEBEB" stroke-width="0.5"/>
<path d="M10 59H190" stroke="#EBEBEB" stroke-width="0.5"/>
<path d="M10 79H190" stroke="#EBEBEB" stroke-width="0.5"/>
<path d="M10 99H190" stroke="#EBEBEB" stroke-width="0.5"/>
<path d="M16.02 24V15.6H19.368C20.232 15.6 20.924 15.832 21.444 16.296C21.972 16.752 22.236 17.392 22.236 18.216C22.236 18.856 22.068 19.384 21.732 19.8C21.396 20.216 20.94 20.5 20.364 20.652L22.176 24H20.604L18.9 20.772H17.436V24H16.02ZM17.436 19.548H19.26C20.292 19.548 20.808 19.104 20.808 18.216C20.808 17.328 20.292 16.884 19.26 16.884H17.436V19.548ZM27.7763 21.888L28.7603 22.692C28.1443 23.684 27.2643 24.18 26.1203 24.18C25.2403 24.18 24.5203 23.876 23.9603 23.268C23.4083 22.652 23.1323 21.836 23.1323 20.82C23.1323 19.804 23.4083 18.992 23.9603 18.384C24.5123 17.768 25.2123 17.46 26.0603 17.46C26.9083 17.46 27.6003 17.764 28.1363 18.372C28.6803 18.98 28.9523 19.796 28.9523 20.82V21.228H24.5123C24.5283 21.756 24.6723 22.18 24.9443 22.5C25.2243 22.812 25.6083 22.968 26.0963 22.968C26.3283 22.968 26.5363 22.936 26.7203 22.872C26.9043 22.808 27.0643 22.712 27.2003 22.584C27.3443 22.456 27.4523 22.344 27.5243 22.248C27.5963 22.152 27.6803 22.032 27.7763 21.888ZM24.5243 20.196H27.6203C27.5963 19.748 27.4523 19.384 27.1883 19.104C26.9243 18.816 26.5483 18.672 26.0603 18.672C25.6043 18.672 25.2403 18.824 24.9683 19.128C24.6963 19.432 24.5483 19.788 24.5243 20.196ZM29.8575 21.876L31.1055 21.576C31.2175 22.544 31.7295 23.028 32.6415 23.028C33.0655 23.028 33.3935 22.956 33.6255 22.812C33.8655 22.66 33.9855 22.46 33.9855 22.212C33.9855 21.972 33.8775 21.796 33.6615 21.684C33.4455 21.572 32.9695 21.412 32.2335 21.204C31.4895 20.996 30.9455 20.752 30.6015 20.472C30.2655 20.184 30.0975 19.808 30.0975 19.344C30.0975 18.832 30.3055 18.392 30.7215 18.024C31.1375 17.648 31.7095 17.46 32.4375 17.46C33.8375 17.46 34.7055 18.08 35.0415 19.32L33.8895 19.656C33.6495 18.952 33.1655 18.6 32.4375 18.6C32.0935 18.6 31.8255 18.668 31.6335 18.804C31.4415 18.94 31.3455 19.1 31.3455 19.284C31.3455 19.492 31.4495 19.652 31.6575 19.764C31.8735 19.868 32.3935 20.036 33.2175 20.268C33.9855 20.484 34.5095 20.744 34.7895 21.048C35.0775 21.352 35.2215 21.748 35.2215 22.236C35.2215 22.74 35.0055 23.192 34.5735 23.592C34.1495 23.984 33.5215 24.18 32.6895 24.18C31.8175 24.18 31.1495 23.96 30.6855 23.52C30.2215 23.072 29.9455 22.524 29.8575 21.876ZM37.9047 20.076V21.612C37.9047 21.98 38.0407 22.296 38.3127 22.56C38.5847 22.816 38.9367 22.944 39.3687 22.944C39.8887 22.944 40.3007 22.76 40.6047 22.392C40.9087 22.024 41.0607 21.5 41.0607 20.82C41.0607 20.14 40.9047 19.616 40.5927 19.248C40.2887 18.88 39.8807 18.696 39.3687 18.696C38.9287 18.696 38.5727 18.832 38.3007 19.104C38.0367 19.376 37.9047 19.7 37.9047 20.076ZM36.5367 26.7V17.64H37.8447V18.252H37.8687C38.2767 17.724 38.8607 17.46 39.6207 17.46C40.3887 17.46 41.0487 17.764 41.6007 18.372C42.1527 18.98 42.4287 19.796 42.4287 20.82C42.4287 21.852 42.1607 22.672 41.6247 23.28C41.0967 23.88 40.4327 24.18 39.6327 24.18C38.9047 24.18 38.3367 23.916 37.9287 23.388H37.9047V26.7H36.5367ZM46.3461 22.944C46.8181 22.944 47.1981 22.76 47.4861 22.392C47.7821 22.016 47.9301 21.492 47.9301 20.82C47.9301 20.148 47.7821 19.628 47.4861 19.26C47.1981 18.884 46.8181 18.696 46.3461 18.696C45.8661 18.696 45.4781 18.88 45.1821 19.248C44.8941 19.616 44.7501 20.14 44.7501 20.82C44.7501 21.508 44.8941 22.036 45.1821 22.404C45.4701 22.764 45.8581 22.944 46.3461 22.944ZM48.4461 23.292C47.9021 23.884 47.2021 24.18 46.3461 24.18C45.4901 24.18 44.7821 23.884 44.2221 23.292C43.6701 22.7 43.3941 21.876 43.3941 20.82C43.3941 19.78 43.6781 18.96 44.2461 18.36C44.8221 17.76 45.5221 17.46 46.3461 17.46C47.1701 17.46 47.8621 17.76 48.4221 18.36C48.9901 18.96 49.2741 19.78 49.2741 20.82C49.2741 21.876 48.9981 22.7 48.4461 23.292ZM50.6578 24V17.64H51.9778V18.252H52.0018C52.1778 18.028 52.4218 17.84 52.7338 17.688C53.0458 17.536 53.3738 17.46 53.7178 17.46C54.4218 17.46 54.9738 17.672 55.3738 18.096C55.7818 18.512 55.9858 19.092 55.9858 19.836V24H54.6298V20.196C54.6298 19.212 54.2178 18.72 53.3938 18.72C52.9778 18.72 52.6458 18.84 52.3978 19.08C52.1498 19.32 52.0258 19.644 52.0258 20.052V24H50.6578ZM57.2442 21.876L58.4922 21.576C58.6042 22.544 59.1162 23.028 60.0282 23.028C60.4522 23.028 60.7802 22.956 61.0122 22.812C61.2522 22.66 61.3722 22.46 61.3722 22.212C61.3722 21.972 61.2642 21.796 61.0482 21.684C60.8322 21.572 60.3562 21.412 59.6202 21.204C58.8762 20.996 58.3322 20.752 57.9882 20.472C57.6522 20.184 57.4842 19.808 57.4842 19.344C57.4842 18.832 57.6922 18.392 58.1082 18.024C58.5242 17.648 59.0962 17.46 59.8242 17.46C61.2242 17.46 62.0922 18.08 62.4282 19.32L61.2762 19.656C61.0362 18.952 60.5522 18.6 59.8242 18.6C59.4802 18.6 59.2122 18.668 59.0202 18.804C58.8282 18.94 58.7322 19.1 58.7322 19.284C58.7322 19.492 58.8362 19.652 59.0442 19.764C59.2602 19.868 59.7802 20.036 60.6042 20.268C61.3722 20.484 61.8962 20.744 62.1762 21.048C62.4642 21.352 62.6082 21.748 62.6082 22.236C62.6082 22.74 62.3922 23.192 61.9602 23.592C61.5362 23.984 60.9082 24.18 60.0762 24.18C59.2042 24.18 58.5362 23.96 58.0722 23.52C57.6082 23.072 57.3322 22.524 57.2442 21.876ZM68.1474 21.888L69.1314 22.692C68.5154 23.684 67.6354 24.18 66.4914 24.18C65.6114 24.18 64.8914 23.876 64.3314 23.268C63.7794 22.652 63.5034 21.836 63.5034 20.82C63.5034 19.804 63.7794 18.992 64.3314 18.384C64.8834 17.768 65.5834 17.46 66.4314 17.46C67.2794 17.46 67.9714 17.764 68.5074 18.372C69.0514 18.98 69.3234 19.796 69.3234 20.82V21.228H64.8834C64.8994 21.756 65.0434 22.18 65.3154 22.5C65.5954 22.812 65.9794 22.968 66.4674 22.968C66.6994 22.968 66.9074 22.936 67.0914 22.872C67.2754 22.808 67.4354 22.712 67.5714 22.584C67.7154 22.456 67.8234 22.344 67.8954 22.248C67.9674 22.152 68.0514 22.032 68.1474 21.888ZM64.8954 20.196H67.9914C67.9674 19.748 67.8234 19.384 67.5594 19.104C67.2954 18.816 66.9194 18.672 66.4314 18.672C65.9754 18.672 65.6114 18.824 65.3394 19.128C65.0674 19.432 64.9194 19.788 64.8954 20.196ZM70.2286 21.876L71.4766 21.576C71.5886 22.544 72.1006 23.028 73.0126 23.028C73.4366 23.028 73.7646 22.956 73.9966 22.812C74.2366 22.66 74.3566 22.46 74.3566 22.212C74.3566 21.972 74.2486 21.796 74.0326 21.684C73.8166 21.572 73.3406 21.412 72.6046 21.204C71.8606 20.996 71.3166 20.752 70.9726 20.472C70.6366 20.184 70.4686 19.808 70.4686 19.344C70.4686 18.832 70.6766 18.392 71.0926 18.024C71.5086 17.648 72.0806 17.46 72.8086 17.46C74.2086 17.46 75.0766 18.08 75.4126 19.32L74.2606 19.656C74.0206 18.952 73.5366 18.6 72.8086 18.6C72.4646 18.6 72.1966 18.668 72.0046 18.804C71.8126 18.94 71.7166 19.1 71.7166 19.284C71.7166 19.492 71.8206 19.652 72.0286 19.764C72.2446 19.868 72.7646 20.036 73.5886 20.268C74.3566 20.484 74.8806 20.744 75.1606 21.048C75.4486 21.352 75.5926 21.748 75.5926 22.236C75.5926 22.74 75.3766 23.192 74.9446 23.592C74.5206 23.984 73.8926 24.18 73.0606 24.18C72.1886 24.18 71.5206 23.96 71.0566 23.52C70.5926 23.072 70.3166 22.524 70.2286 21.876Z" fill="#1C1C1C"/>
<rect x="154" y="11" width="35" height="16" rx="8" fill="#3A5895"/>
<path d="M159.49 20.9V18.65H157.5V17.87H159.49V15.85H160.31V17.87H162.3V18.65H160.31V20.9H159.49ZM169.061 16.02C168.861 15.8133 168.564 15.71 168.171 15.71C167.777 15.71 167.477 15.8133 167.271 16.02C167.071 16.22 166.971 16.47 166.971 16.77C166.971 17.07 167.081 17.3233 167.301 17.53C167.521 17.73 167.811 17.83 168.171 17.83C168.531 17.83 168.821 17.73 169.041 17.53C169.261 17.3233 169.371 17.07 169.371 16.77C169.371 16.47 169.267 16.22 169.061 16.02ZM167.041 20.87C167.294 21.1033 167.671 21.22 168.171 21.22C168.671 21.22 169.047 21.1033 169.301 20.87C169.554 20.6367 169.681 20.33 169.681 19.95C169.681 19.5567 169.544 19.24 169.271 19C168.997 18.76 168.631 18.64 168.171 18.64C167.711 18.64 167.344 18.76 167.071 19C166.797 19.24 166.661 19.5567 166.661 19.95C166.661 20.33 166.787 20.6367 167.041 20.87ZM166.021 16.68C166.021 16.18 166.217 15.75 166.611 15.39C167.004 15.03 167.524 14.85 168.171 14.85C168.824 14.85 169.347 15.03 169.741 15.39C170.141 15.75 170.341 16.18 170.341 16.68C170.341 17.36 170.051 17.86 169.471 18.18V18.2C169.804 18.3333 170.087 18.56 170.321 18.88C170.561 19.1933 170.681 19.57 170.681 20.01C170.681 20.6833 170.451 21.21 169.991 21.59C169.531 21.9633 168.924 22.15 168.171 22.15C167.417 22.15 166.811 21.9633 166.351 21.59C165.891 21.21 165.661 20.6833 165.661 20.01C165.661 19.57 165.777 19.1933 166.011 18.88C166.251 18.56 166.537 18.3333 166.871 18.2V18.18C166.304 17.8667 166.021 17.3667 166.021 16.68ZM174.123 22.15C173.31 22.15 172.666 21.8333 172.193 21.2C171.726 20.56 171.493 19.6267 171.493 18.4C171.493 17.2533 171.733 16.3767 172.213 15.77C172.7 15.1567 173.336 14.85 174.123 14.85C174.916 14.85 175.553 15.1567 176.033 15.77C176.52 16.3767 176.763 17.2533 176.763 18.4C176.763 19.6267 176.526 20.56 176.053 21.2C175.586 21.8333 174.943 22.15 174.123 22.15ZM172.503 18.4C172.503 20.2867 173.043 21.23 174.123 21.23C175.203 21.23 175.743 20.2867 175.743 18.4C175.743 16.6533 175.203 15.78 174.123 15.78C173.603 15.78 173.203 16 172.923 16.44C172.643 16.88 172.503 17.5333 172.503 18.4ZM178.905 17.85C179.058 18.09 179.278 18.21 179.565 18.21C179.852 18.21 180.068 18.09 180.215 17.85C180.368 17.6033 180.445 17.27 180.445 16.85C180.445 16.4433 180.368 16.1367 180.215 15.93C180.062 15.7167 179.845 15.61 179.565 15.61C179.285 15.61 179.068 15.7167 178.915 15.93C178.762 16.1367 178.685 16.4433 178.685 16.85C178.685 17.27 178.758 17.6033 178.905 17.85ZM180.765 18.39C180.465 18.75 180.065 18.93 179.565 18.93C179.065 18.93 178.665 18.75 178.365 18.39C178.065 18.03 177.915 17.5133 177.915 16.84C177.915 16.22 178.078 15.74 178.405 15.4C178.738 15.0533 179.125 14.88 179.565 14.88C180.012 14.88 180.398 15.0533 180.725 15.4C181.058 15.74 181.225 16.22 181.225 16.84C181.225 17.5133 181.072 18.03 180.765 18.39ZM183.665 21.04C183.818 21.28 184.038 21.4 184.325 21.4C184.612 21.4 184.828 21.28 184.975 21.04C185.128 20.7933 185.205 20.46 185.205 20.04C185.205 19.6333 185.128 19.3267 184.975 19.12C184.822 18.9067 184.605 18.8 184.325 18.8C184.045 18.8 183.828 18.9067 183.675 19.12C183.522 19.3267 183.445 19.6333 183.445 20.04C183.445 20.46 183.518 20.7933 183.665 21.04ZM185.525 21.58C185.225 21.94 184.825 22.12 184.325 22.12C183.825 22.12 183.425 21.94 183.125 21.58C182.825 21.22 182.675 20.7033 182.675 20.03C182.675 19.41 182.838 18.93 183.165 18.59C183.498 18.2433 183.885 18.07 184.325 18.07C184.772 18.07 185.158 18.2433 185.485 18.59C185.818 18.93 185.985 19.41 185.985 20.03C185.985 20.7033 185.832 21.22 185.525 21.58ZM179.095 22.37L183.985 14.22L184.565 14.59L179.685 22.73L179.095 22.37Z" fill="white"/>
<path d="M189.617 46C170.638 46.1371 160.374 56.4496 152.632 66.0693C151.594 67.3596 150.599 68.6404 149.633 69.8835C146.983 73.2935 144.554 76.4202 142.053 78.6843C140.34 80.2344 138.577 81.3977 136.664 81.9774C134.745 82.5586 132.693 82.5478 130.415 81.7761C127.015 80.6238 124.104 81.4209 121.234 82.9308C119.862 83.6532 118.506 84.5345 117.112 85.441L116.912 85.5711C115.451 86.5206 113.947 87.4888 112.356 88.305C109.168 89.9405 105.613 90.9724 101.284 90.0503C96.9639 89.1302 91.9073 86.272 85.6913 80.2059C79.5183 74.1818 74.1184 71.7033 69.3583 71.4788C64.6 71.2543 60.4288 73.2796 56.7067 76.3753C52.9822 79.473 49.7279 83.6254 46.8077 87.6174C46.188 88.4645 45.5829 89.3054 44.9911 90.1274C42.8046 93.1653 40.8024 95.9469 38.9353 97.8449C35.114 101.729 29.1462 103.911 23.5219 105.02C17.9239 106.124 12.6139 106.175 10 105.756V108.749C10 114.271 14.4772 118.749 20 118.749H180C185.523 118.749 190 114.271 190 108.749V48.7486C190 47.7954 189.867 46.8733 189.617 46Z" fill="url(#paint0_linear_978_124)"/>
<path d="M10 105.754C15.1241 106.594 31.2197 105.583 38.7571 97.921C48.1789 88.3433 61.0718 56.0822 85.866 80.2784C110.66 104.475 116.532 77.0594 130.495 81.7907C148.347 87.8395 151.321 46.0007 190 46" stroke="#3A5895" stroke-width="0.5"/>
<defs>
<linearGradient id="paint0_linear_978_124" x1="10" y1="82" x2="194.5" y2="82" gradientUnits="userSpaceOnUse">
<stop stop-color="#A2C7E2"/>
<stop offset="1" stop-color="#A2C7E2"/>
</linearGradient>
</defs>
</svg>
