<svg width="36" height="40" viewBox="0 0 36 40" fill="none" xmlns="http://www.w3.org/2000/svg">
<path d="M34.0243 12.0701L34.3182 12.4746L34.0243 12.0701L18.232 23.5438L18.232 23.5438C16.9056 24.5075 15.0459 23.56 15.0459 21.9204V2.40011C15.0459 1.278 15.9485 0.40946 17.0026 0.507797C20.3248 0.817745 23.5662 1.75441 26.5524 3.27596C29.5385 4.79751 32.2016 6.86926 34.4051 9.37486C35.1042 10.1698 34.9321 11.4106 34.0243 12.0701Z" stroke="#CFCFCE"/>
<path d="M15.6666 9.1668C24.0429 9.1668 30.8332 15.9571 30.8332 24.3334C30.8332 32.7097 24.0429 39.5 15.6666 39.5C7.29032 39.5 0.5 32.7097 0.5 24.3334C0.5 15.9571 7.29032 9.1668 15.6666 9.1668Z" stroke="#CFCFCE"/>
</svg>
