<svg width="36" height="40" viewBox="0 0 36 40" fill="none" xmlns="http://www.w3.org/2000/svg">
<path d="M17.049 0.00995854C20.4341 0.325767 23.7367 1.28014 26.7794 2.83046C29.822 4.38077 32.5354 6.49169 34.7806 9.04466C35.6948 10.0842 35.4382 11.6609 34.3182 12.4746L18.5259 23.9483C16.869 25.1522 14.5459 23.9685 14.5459 21.9204V2.40011C14.5459 1.01572 15.6706 -0.118639 17.049 0.00995854Z" fill="#A2C7E2"/>
<path d="M31.3332 24.3334C31.3332 15.681 24.319 8.6668 15.6666 8.6668C7.01418 8.6668 0 15.681 0 24.3334C0 32.9858 7.01418 40 15.6666 40C24.319 40 31.3332 32.9858 31.3332 24.3334Z" fill="#5BA5C3"/>
<path d="M29.099 16.2667L18.5259 23.9485C16.869 25.1523 14.5459 23.9686 14.5459 21.9205V8.70642C14.9159 8.68028 15.2895 8.66699 15.6661 8.66699C21.368 8.66699 26.3585 11.713 29.099 16.2667Z" fill="url(#paint0_linear_956_290)"/>
<defs>
<linearGradient id="paint0_linear_956_290" x1="21.3061" y1="24.9602" x2="16.8407" y2="7.43373" gradientUnits="userSpaceOnUse">
<stop stop-color="#3A5895"/>
<stop offset="1" stop-color="#5BA5C3"/>
</linearGradient>
</defs>
</svg>
