<svg width="40" height="40" viewBox="0 0 40 40" fill="none" xmlns="http://www.w3.org/2000/svg">
<path d="M5.71436 5.71429C5.71436 2.55837 8.27273 0 11.4286 0C14.5846 0 17.1429 2.55837 17.1429 5.71429C17.1429 7.55646 16.2712 9.19503 14.9178 10.24C14.8771 10.27 14.8366 10.3004 14.7964 10.3311C13.852 11.0212 12.6879 11.4286 11.4286 11.4286C8.27273 11.4286 5.71436 8.8702 5.71436 5.71429Z" fill="#A1FFCD"/>
<path d="M25.0823 10.24C25.123 10.27 25.1635 10.3004 25.2037 10.3312C26.148 11.0213 27.3123 11.4286 28.5715 11.4286C31.7275 11.4286 34.2857 8.8702 34.2857 5.71429C34.2857 2.55837 31.7275 0 28.5715 0C25.4155 0 22.8572 2.55837 22.8572 5.71429C22.8572 7.55646 23.7289 9.19503 25.0823 10.24Z" fill="#A1FFCD"/>
<path d="M15.0501 14.2859C16.0381 12.5779 17.8848 11.4287 19.9999 11.4287C22.115 11.4287 23.9617 12.5779 24.9498 14.2859C25.436 15.1263 25.7142 16.1022 25.7142 17.143C25.7142 20.2989 23.1558 22.8573 19.9999 22.8573C16.844 22.8573 14.2856 20.2989 14.2856 17.143C14.2856 16.1022 14.5639 15.1263 15.0501 14.2859Z" fill="#33B68E"/>
<path d="M4.28566 14.2861H11.9163C11.6004 15.1798 11.4286 16.1414 11.4286 17.1433C11.4286 19.3386 12.2539 21.3411 13.6111 22.8576H12.8571C9.75669 22.8576 7.11771 24.833 6.12991 27.5936C5.1586 27.1984 4.25994 26.6821 3.46329 26.0427C1.31134 24.3155 0 21.7606 0 18.5718C0 16.205 1.91874 14.2861 4.28566 14.2861Z" fill="#A1FFCD"/>
<path d="M27.1429 22.8576C30.2432 22.8576 32.8823 24.8329 33.8701 27.5936C34.8415 27.1984 35.7401 26.6821 36.5369 26.0427C38.6886 24.3155 40.0001 21.7606 40.0001 18.5718C40.0001 16.2049 38.0812 14.2861 35.7143 14.2861H28.0838C28.3995 15.1798 28.5715 16.1414 28.5715 17.1433C28.5715 19.3386 27.7461 21.3411 26.3889 22.8576H27.1429Z" fill="#A1FFCD"/>
<path d="M31.1059 28.3653C31.3136 28.869 31.4284 29.421 31.4284 29.9996C31.4284 33.1884 30.117 35.7433 27.9653 37.4704C25.8473 39.1704 23.0087 39.9996 19.9999 39.9996C16.9911 39.9996 14.1525 39.1704 12.0346 37.4704C9.88263 35.7433 8.57129 33.1884 8.57129 29.9996C8.57129 29.421 8.686 28.869 8.89392 28.3653C9.53637 26.809 11.0687 25.7139 12.8569 25.7139H27.1427C28.931 25.7139 30.4633 26.809 31.1059 28.3653Z" fill="#33B68E"/>
</svg>
