<svg width="40" height="40" viewBox="0 0 40 40" fill="none" xmlns="http://www.w3.org/2000/svg">
<path d="M6.2143 5.71429C6.2143 2.83451 8.54881 0.5 11.4286 0.5C14.3084 0.5 16.6429 2.83451 16.6429 5.71429C16.6429 7.39309 15.85 8.88649 14.6163 9.841C14.5763 9.87057 14.5366 9.90042 14.4972 9.93051C13.6363 10.5583 12.5764 10.9286 11.4286 10.9286C8.54881 10.9286 6.2143 8.59406 6.2143 5.71429ZM12.3477 37.0809L12.0347 37.4708L12.3477 37.0809C10.3156 35.4499 9.07141 33.0392 9.07141 29.9999C9.07141 29.488 9.17282 29.0007 9.3562 28.5564C9.9241 27.1808 11.2783 26.2142 12.8571 26.2142H27.1428C28.7216 26.2142 30.0757 27.1807 30.6437 28.5563C30.827 29.0007 30.9286 29.4881 30.9286 29.9999C30.9286 33.0392 29.6843 35.4499 27.6524 37.0809C25.6424 38.6942 22.9223 39.4999 20 39.4999C17.0776 39.4999 14.3576 38.6942 12.3477 37.0809ZM28.5714 10.9286C27.4237 10.9286 26.3637 10.5583 25.5029 9.93061C25.4634 9.90042 25.4236 9.87054 25.3836 9.84099C24.1499 8.88647 23.3571 7.39308 23.3571 5.71429C23.3571 2.83451 25.6916 0.5 28.5714 0.5C31.4512 0.5 33.7857 2.83451 33.7857 5.71429C33.7857 8.59406 31.4512 10.9286 28.5714 10.9286ZM15.483 14.5361C16.3853 12.9762 18.0706 11.9286 20 11.9286C21.9294 11.9286 23.6147 12.9762 24.517 14.5361C24.9604 15.3025 25.2143 16.1923 25.2143 17.1429C25.2143 20.0227 22.8798 22.3572 20 22.3572C17.1202 22.3572 14.7857 20.0227 14.7857 17.1429C14.7857 16.1923 15.0396 15.3025 15.483 14.5361ZM4.28566 14.7858H11.238C11.0361 15.5379 10.9286 16.3281 10.9286 17.1429C10.9286 19.0855 11.5396 20.8862 12.5795 22.3622C9.56904 22.4696 7.00312 24.3181 5.85612 26.9298C5.10344 26.583 4.40519 26.1572 3.77626 25.6524C1.74414 24.0214 0.5 21.6107 0.5 18.5715C0.5 16.4808 2.1949 14.7858 4.28566 14.7858ZM34.1439 26.9298C32.9969 24.318 30.4308 22.4696 27.4205 22.3622C28.4603 20.8862 29.0715 19.0855 29.0715 17.1429C29.0715 16.3281 28.9639 15.5378 28.762 14.7858H35.7143C37.8051 14.7858 39.5 16.4807 39.5 18.5715C39.5 21.6107 38.2559 24.0213 36.224 25.6524C35.5948 26.1572 34.8966 26.583 34.1439 26.9298Z" stroke="#CFCFCE"/>
</svg>
