<svg width="40" height="40" viewBox="0 0 40 40" fill="none" xmlns="http://www.w3.org/2000/svg">
<rect x="13.53" width="10.1245" height="28.7168" rx="5.06226" fill="#A1FFCD"/>
<rect x="29.3611" width="10.1245" height="28.7168" rx="5.06226" fill="#A1FFCD"/>
<path d="M30.3735 19.6986C32.2144 20.7614 32.2144 23.4184 30.3735 24.4812L4.14185 39.6261C2.30103 40.6889 -9.29128e-08 39.3604 0 37.2348L1.32401e-06 6.94504C1.41692e-06 4.81944 2.30103 3.49094 4.14185 4.55374L30.3735 19.6986Z" fill="#33B68E"/>
<path fill-rule="evenodd" clip-rule="evenodd" d="M23.6545 15.819V23.6543C23.6545 26.4501 21.3881 28.7166 18.5923 28.7166C15.7965 28.7166 13.53 26.4501 13.53 23.6543V9.97363L23.6545 15.819Z" fill="url(#paint0_linear_956_297)"/>
<defs>
<linearGradient id="paint0_linear_956_297" x1="18.5923" y1="9.97363" x2="18.5923" y2="28.7166" gradientUnits="userSpaceOnUse">
<stop stop-color="#33B68E"/>
<stop offset="1" stop-color="#478978"/>
</linearGradient>
</defs>
</svg>
