<svg width="40" height="39" viewBox="0 0 40 39" fill="none" xmlns="http://www.w3.org/2000/svg">
<path d="M10 16.7265L20 22.3022V11.1509L10 5.5752V16.7265Z" fill="#E07F51"/>
<path d="M30 16.7265V5.5752L20 11.1509V22.3022L30 16.7265Z" fill="#D0696B"/>
<path d="M30 5.57567L20 0L10 5.57567L20 11.1513L30 5.57567Z" fill="#F39934"/>
<path d="M0 33.4287L9.99999 39.0044V27.853L0 22.2773V33.4287Z" fill="#E07F51"/>
<path d="M20 33.4287V22.2773L10 27.853V39.0044L20 33.4287Z" fill="#D0696B"/>
<path d="M20 22.2768L9.99998 16.7012L0 22.2768L9.99998 27.8525L20 22.2768Z" fill="#F39934"/>
<path d="M20 33.4287L30 39.0044V27.853L20 22.2773V33.4287Z" fill="#E07F51"/>
<path d="M40 33.4287V22.2773L30 27.853V39.0044L40 33.4287Z" fill="#D0696B"/>
<path d="M40 22.2768L30 16.7012L20 22.2768L30 27.8525L40 22.2768Z" fill="#F39934"/>
</svg>
