<svg width="42" height="41" viewBox="0 0 42 41" fill="none" xmlns="http://www.w3.org/2000/svg">
<path d="M11 17.7265L21 23.3022V12.1509L11 6.5752V17.7265Z" stroke="#CFCFCE" stroke-linejoin="round"/>
<path d="M31 17.7265V6.5752L21 12.1509V23.3022L31 17.7265Z" stroke="#CFCFCE" stroke-linejoin="round"/>
<path d="M31 6.57567L21 1L11 6.57567L21 12.1513L31 6.57567Z" stroke="#CFCFCE" stroke-linejoin="round"/>
<path d="M1 34.4287L11 40.0044V28.853L1 23.2773V34.4287Z" stroke="#CFCFCE" stroke-linejoin="round"/>
<path d="M21 34.4287V23.2773L11 28.853V40.0044L21 34.4287Z" stroke="#CFCFCE" stroke-linejoin="round"/>
<path d="M21 23.2768L11 17.7012L1 23.2768L11 28.8525L21 23.2768Z" stroke="#CFCFCE" stroke-linejoin="round"/>
<path d="M21 34.4287L31 40.0044V28.853L21 23.2773V34.4287Z" stroke="#CFCFCE" stroke-linejoin="round"/>
<path d="M41 34.4287V23.2773L31 28.853V40.0044L41 34.4287Z" stroke="#CFCFCE" stroke-linejoin="round"/>
<path d="M41 23.2768L31 17.7012L21 23.2768L31 28.8525L41 23.2768Z" stroke="#CFCFCE" stroke-linejoin="round"/>
</svg>
