<svg width="35" height="40" viewBox="0 0 35 40" fill="none" xmlns="http://www.w3.org/2000/svg">
<path d="M22.5639 27.0564L22.8639 27.2439L23.1406 27.0234C24.3368 26.0698 25.8511 25.5 27.5 25.5C31.366 25.5 34.5 28.634 34.5 32.5C34.5 36.366 31.366 39.5 27.5 39.5C23.634 39.5 20.5 36.366 20.5 32.5V32.4999C20.4999 31.9887 20.5555 31.479 20.666 30.9799L20.7423 30.635L20.4428 30.4478L12.4361 25.4436L12.1361 25.2561L11.8594 25.4766C10.6632 26.4302 9.14891 27 7.5 27C3.63403 27 0.5 23.866 0.5 20C0.5 16.134 3.63403 13 7.5 13C9.14891 13 10.6632 13.5698 11.8594 14.5234L12.1361 14.7439L12.4361 14.5564L20.4428 9.5522L20.7424 9.36499L20.666 9.02011C20.5576 8.53076 20.5 8.0223 20.5 7.5C20.5 3.63403 23.634 0.5 27.5 0.5C31.366 0.5 34.5 3.63403 34.5 7.5C34.5 11.366 31.366 14.5 27.5 14.5C25.8511 14.5 24.3368 13.9302 23.1406 12.9765L22.8639 12.756L22.5639 12.9435L14.5572 17.9477L14.2578 18.1349L14.334 18.4796C14.5554 19.4811 14.5554 20.5188 14.334 21.5203L14.2578 21.8651L14.5572 22.0522L22.5639 27.0564Z" stroke="#CFCFCE"/>
</svg>
