<svg width="35" height="40" viewBox="0 0 35 40" fill="none" xmlns="http://www.w3.org/2000/svg">
<path d="M27.5 25C25.7338 25 24.1104 25.6109 22.8289 26.6324L14.8222 21.6282C15.0593 20.5557 15.0593 19.4443 14.8222 18.3717L22.8289 13.3675C24.1104 14.3891 25.7338 15 27.5 15C31.6421 15 35 11.6421 35 7.5C35 3.35789 31.6421 0 27.5 0C23.3579 0 20 3.35789 20 7.5C20 8.05922 20.0617 8.60391 20.1778 9.1282L12.1711 14.1324C10.8896 13.1109 9.26625 12.5 7.5 12.5C3.35789 12.5 0 15.8579 0 20C0 24.1421 3.35789 27.5 7.5 27.5C9.26625 27.5 10.8896 26.8891 12.1711 25.8676L20.1778 30.8718C20.0595 31.4064 19.9998 31.9524 20 32.5C20 36.6421 23.3579 40 27.5 40C31.6421 40 35 36.6421 35 32.5C35 28.3579 31.6421 25 27.5 25Z" fill="url(#paint0_linear_956_288)"/>
<defs>
<linearGradient id="paint0_linear_956_288" x1="17.5" y1="0" x2="17.5" y2="40" gradientUnits="userSpaceOnUse">
<stop stop-color="#A2C7E2"/>
<stop offset="1" stop-color="#5BA5C3"/>
</linearGradient>
</defs>
</svg>
