<svg width="42" height="42" viewBox="0 0 42 42" fill="none" xmlns="http://www.w3.org/2000/svg">
<path d="M1 4.56841V32.7462C1 33.5409 2.09629 33.9389 2.73745 33.3769L10.5816 26.5015C10.9633 26.1669 11.4811 25.9789 12.0209 25.9789H33.5689C35.8174 25.9789 37.64 24.3813 37.64 22.4105V4.56841C37.64 2.59763 35.8174 1 33.5689 1H5.07111C2.8227 1 1 2.59763 1 4.56841Z" stroke="#CFCFCE" stroke-linecap="round" stroke-linejoin="round"/>
<path d="M41 20.4788V40.369C41 40.93 40.2245 41.211 39.7709 40.8142L34.2218 35.961C33.9517 35.7249 33.5854 35.5921 33.2035 35.5921H17.96C16.3694 35.5921 15.08 34.4644 15.08 33.0732V20.4788C15.08 19.0877 16.3694 17.96 17.96 17.96H38.12C39.7106 17.96 41 19.0877 41 20.4788Z" stroke="#CFCFCE" stroke-linecap="round" stroke-linejoin="round"/>
</svg>
