<svg width="33" height="40" viewBox="0 0 33 40" fill="none" xmlns="http://www.w3.org/2000/svg">
<path d="M25.1801 40C24.4152 39.6904 23.8688 38.9983 23.7413 38.1788C23.6503 37.7053 23.7413 37.3775 24.4698 36.0662C27.2016 31.149 28.6039 25.5943 28.5311 19.9668C28.6039 14.5032 27.2744 9.16705 24.6519 4.37729C24.2695 3.57596 23.9234 2.81105 23.632 1.99151C23.7413 1.29946 24.0873 0.662035 24.6519 0.279583C25.4715 -0.157506 26.4731 -0.0664456 27.2198 0.443491C27.7297 1.09912 28.1668 1.75476 28.5311 2.51966C30.498 6.30776 31.8275 10.3144 32.4831 14.5032C32.902 17.7995 32.9566 21.1506 32.647 24.4651C32.0824 28.7268 30.8258 32.8427 28.8953 36.6854C27.7297 39.0166 27.0741 40 26.3821 40C26.2364 40 26.0725 40 25.9268 40C25.6718 40 25.435 40 25.1801 40ZM17.2396 35.9751C16.2015 35.6838 15.5459 34.6275 15.7645 33.5712C15.7645 33.3526 16.329 32.351 16.839 31.3311C18.988 27.1969 19.9168 22.5347 19.4979 17.8906C19.2429 14.5578 18.2777 11.3161 16.6933 8.38393C15.5459 6.08922 15.4731 5.72498 16.1469 4.74153C16.9482 3.84914 18.2777 3.72165 19.2612 4.48656C20.5724 6.41703 21.6105 8.52963 22.3754 10.7515C24.7066 17.6539 24.3423 25.1754 21.3555 31.8046C19.8257 35.2467 18.7512 36.3576 17.2396 35.8841V35.9751ZM9.04421 31.9139C8.38858 31.6225 7.89686 31.0397 7.71474 30.3476C7.71474 29.9834 7.71474 29.5099 8.53428 28.0529C11.2479 23.1357 11.2479 17.1621 8.53428 12.2449C7.3505 9.95017 7.3505 9.47665 8.31573 8.60248C8.66176 8.20181 9.1717 8.00148 9.71806 8.07433C10.8836 8.07433 11.5393 8.6389 12.5227 10.6969C14.0707 13.5379 14.8721 16.725 14.8538 19.9668C14.9267 23.2632 14.1254 26.5413 12.5409 29.437C11.5575 31.3493 11.0657 31.8046 10.0823 31.9685C9.73627 32.0049 9.37203 31.9685 9.04421 31.8046V31.9139ZM1.37695 28.0347C0.775956 27.7433 0.302443 27.2516 0.0656871 26.6142C-0.116433 25.9767 0.0656872 25.4304 0.794168 24.2648C1.70477 23.0264 2.14186 21.4966 2.0508 19.9668C2.17828 18.4188 1.75941 16.8889 0.867016 15.6141C0.557412 15.1588 0.302443 14.6671 0.0656871 14.1754C-0.134645 13.028 0.63026 11.9353 1.88689 11.7167C2.87034 11.5346 3.5624 11.9535 4.473 13.3376C7.11374 17.3625 7.11374 22.5529 4.473 26.5777C3.54418 27.9801 2.48789 28.3989 1.39516 28.0347H1.37695Z" fill="url(#paint0_linear_956_251)"/>
<defs>
<linearGradient id="paint0_linear_956_251" x1="16.4222" y1="0" x2="16.4222" y2="40" gradientUnits="userSpaceOnUse">
<stop stop-color="#D0696B"/>
<stop offset="1" stop-color="#F39934"/>
</linearGradient>
</defs>
</svg>
