<svg width="40" height="40" viewBox="0 0 40 40" fill="none" xmlns="http://www.w3.org/2000/svg">
<path d="M37.9521 23.4502L37.9515 23.45C37.5978 23.3489 37.0514 23.3867 36.6977 23.5378C36.6851 23.5453 36.6452 23.5691 36.566 23.6192C36.4758 23.6762 36.353 23.7555 36.2004 23.8551C35.8957 24.0541 35.4776 24.3307 34.976 24.6651C33.9733 25.3336 32.6399 26.231 31.2172 27.1964C29.7924 28.1716 28.4687 29.0668 27.4835 29.723C26.9911 30.0509 26.5816 30.3202 26.2857 30.5102C26.1382 30.6049 26.0162 30.6817 25.9251 30.7368C25.88 30.764 25.8385 30.7883 25.8035 30.8076C25.7862 30.817 25.7661 30.8276 25.7455 30.8374L25.7446 30.8379C25.7319 30.844 25.6875 30.8651 25.6325 30.8788C25.5805 30.8918 25.5257 30.8964 25.505 30.8982L25.5029 30.8983C25.4701 30.9011 25.4309 30.9035 25.3879 30.9058C25.3011 30.9102 25.1852 30.9144 25.0454 30.9185C24.765 30.9265 24.3782 30.934 23.9141 30.9403C22.9855 30.9531 21.7415 30.9616 20.409 30.9616C18.2084 30.9616 16.9838 30.9574 16.2929 30.9381C15.9511 30.9285 15.719 30.9149 15.5581 30.8924C15.4067 30.8713 15.2282 30.8326 15.0792 30.7023L15.0667 30.6913L15.0549 30.6795C14.8866 30.5112 14.7957 30.286 14.7787 30.0734C14.7622 29.867 14.8127 29.5702 15.0676 29.3719L15.0675 29.3718L15.0745 29.3666C15.1439 29.3146 15.2108 29.2927 15.23 29.2865C15.2593 29.2769 15.2854 29.271 15.303 29.2674C15.3389 29.26 15.3758 29.2551 15.4077 29.2515C15.4733 29.2441 15.5575 29.2379 15.6559 29.2324C15.8546 29.2213 16.1404 29.2117 16.5137 29.2031C17.2619 29.1861 18.3799 29.1734 19.8977 29.1649C20.1841 29.163 20.4531 29.1614 20.7059 29.1598C22.7449 29.1474 23.7288 29.1414 24.2924 29.0636C24.5875 29.0229 24.7117 28.9683 24.798 28.9121C24.8907 28.8518 24.9644 28.7775 25.1163 28.6244C25.1488 28.5916 25.1849 28.5552 25.2255 28.5146C25.5085 28.2316 25.6484 28.0315 25.7246 27.8329C25.8008 27.6346 25.8323 27.3889 25.8088 26.9815L25.8086 26.9815L25.8082 26.9694C25.7806 26.1411 25.3842 25.5473 24.6401 25.2028L24.299 25.0454L17.238 25.0287L17.2371 25.0287C17.0087 25.0278 16.7871 25.0268 16.572 25.0259C12.9761 25.0106 11.2134 25.0031 10.2136 25.0638C9.69016 25.0956 9.40993 25.1448 9.20042 25.2092C9.01299 25.2669 8.86871 25.3394 8.62549 25.4617C8.59011 25.4795 8.55264 25.4984 8.51264 25.5184C8.01802 25.7657 7.80237 25.9262 6.17898 27.4984L6.17778 27.4995C3.94834 29.6442 2.49568 31.0418 1.59814 31.9118C1.20966 32.2884 0.92672 32.5646 0.730358 32.7592C0.958511 32.9423 1.27441 33.1925 1.65877 33.4947C2.49003 34.1483 3.63723 35.0415 4.89922 36.0156L9.1447 39.2898L11.0206 37.4139L13.2242 35.2103L13.3706 35.0638H13.5777H19.8496C22.8706 35.0638 24.4396 35.0638 25.329 35.0449C26.2106 35.0261 26.3823 34.9892 26.6241 34.927L26.6274 34.9262C26.9489 34.8458 27.3816 34.705 27.5655 34.6217C27.5655 34.6216 27.5686 34.6197 27.5755 34.6156C27.59 34.6069 27.6214 34.588 27.6759 34.5537C27.7555 34.5037 27.8643 34.4337 27.9997 34.3455C28.2701 34.1693 28.6406 33.9245 29.0828 33.63C29.9669 33.0413 31.1339 32.257 32.3528 31.4331C34.7886 29.7866 37.4227 27.9883 38.4209 27.278C38.7388 27.0389 39.0257 26.7579 39.1343 26.6021C39.936 25.4171 39.3613 23.8508 37.9521 23.4502Z" stroke="#CFCFCE"/>
<path d="M33.4546 23.9191C33.4544 23.9188 33.4542 23.9185 33.4539 23.9182C33.4565 23.922 33.4571 23.9223 33.4546 23.9191ZM32.4654 24.1889C32.7434 23.9967 32.9832 23.8302 33.1693 23.6999C32.9735 23.58 32.7351 23.472 32.5331 23.4223C32.2588 23.3605 32.0155 23.3658 31.5883 23.4408C31.496 23.4677 31.3485 23.531 31.0384 23.7151C30.7123 23.9087 30.2399 24.2151 29.5026 24.7066C29.3339 24.821 29.1783 24.9264 29.0348 25.0236C28.14 25.6295 27.7144 25.9178 27.5137 26.0897C27.5153 26.0951 27.5168 26.1006 27.5184 26.1062L27.5185 26.1062L27.5211 26.1161C27.604 26.4374 27.6352 26.8304 27.6236 27.2078C27.6205 27.3072 27.6144 27.4083 27.605 27.5094C27.6178 27.5008 27.6306 27.4921 27.6436 27.4834C28.3002 27.0399 29.174 26.4456 30.0497 25.8473C30.9255 25.249 31.8024 24.6472 32.4654 24.1889ZM27.4351 26.1649C27.4352 26.1649 27.4357 26.1643 27.4366 26.163C27.4356 26.1643 27.4351 26.1649 27.4351 26.1649ZM27.4757 25.9654C27.4754 25.964 27.4752 25.9632 27.4751 25.9631L27.4757 25.9654Z" stroke="#CFCFCE"/>
<path d="M26.7392 23.5421C26.6043 23.6115 26.2987 23.796 26.0432 23.9709C26.1483 24.0473 26.255 24.1316 26.352 24.214C26.4514 24.2985 26.5568 24.3947 26.6422 24.4875L27.5162 23.8969C27.7333 23.745 27.9386 23.601 28.1171 23.4744C28.057 23.4509 28.0042 23.4323 27.9636 23.4204C27.8617 23.3985 27.6391 23.3894 27.3669 23.4147C27.0986 23.4396 26.8654 23.4902 26.7392 23.5421Z" stroke="#CFCFCE"/>
<mask id="path-4-inside-1_956_320" fill="white">
<path d="M24.4603 22.9866C24.6637 23.0544 24.8333 23.1222 24.8333 23.173C24.8333 23.2239 24.6637 23.3595 24.4434 23.4782L24.0535 23.7324L22.9008 23.7155L21.7312 23.6985L22.155 23.4104C22.9347 22.9018 23.6975 22.7662 24.4603 22.9866Z"/>
</mask>
<path d="M24.4603 22.9866L24.7379 22.0259L24.7573 22.0315L24.7766 22.0379L24.4603 22.9866ZM24.4434 23.4782L23.8971 22.6405L23.9323 22.6176L23.9693 22.5977L24.4434 23.4782ZM24.0535 23.7324L24.5998 24.57L24.3441 24.7368L24.0388 24.7323L24.0535 23.7324ZM22.9008 23.7155L22.9153 22.7156L22.9155 22.7156L22.9008 23.7155ZM21.7312 23.6985L21.7167 24.6984L18.5499 24.6525L21.1689 22.8716L21.7312 23.6985ZM22.155 23.4104L21.5927 22.5834L21.6007 22.578L21.6087 22.5727L22.155 23.4104ZM24.7766 22.0379C24.8833 22.0735 25.0235 22.1226 25.1475 22.1807C25.2043 22.2073 25.3072 22.2583 25.4106 22.3373C25.4624 22.3769 25.5498 22.45 25.6316 22.5613C25.7126 22.6716 25.8333 22.8824 25.8333 23.173H23.8333C23.8333 23.4509 23.9486 23.6485 24.0195 23.7451C24.0912 23.8427 24.1638 23.9017 24.1965 23.9267C24.234 23.9553 24.2636 23.9726 24.2762 23.9798C24.2837 23.984 24.2893 23.987 24.2927 23.9887C24.2962 23.9905 24.2983 23.9915 24.2986 23.9916C24.2991 23.9918 24.2955 23.9902 24.287 23.9867C24.2788 23.9833 24.2676 23.9789 24.2533 23.9735C24.2241 23.9626 24.1879 23.9498 24.1441 23.9353L24.7766 22.0379ZM25.8333 23.173C25.8333 23.4344 25.7335 23.6231 25.6924 23.6945C25.6413 23.7833 25.5863 23.8499 25.5502 23.8904C25.4768 23.9729 25.3988 24.0392 25.3398 24.0857C25.216 24.1832 25.0682 24.2775 24.9175 24.3586L23.9693 22.5977C24.039 22.5602 24.086 22.5273 24.1021 22.5147C24.113 22.5061 24.0912 22.5215 24.0564 22.5606C24.0397 22.5794 23.9997 22.6261 23.9587 22.6973C23.9375 22.7342 23.9089 22.79 23.8844 22.8621C23.8603 22.933 23.8333 23.0401 23.8333 23.173H25.8333ZM24.9896 24.3158L24.5998 24.57L23.5072 22.8948L23.8971 22.6405L24.9896 24.3158ZM24.0388 24.7323L22.8861 24.7154L22.9155 22.7156L24.0682 22.7325L24.0388 24.7323ZM22.8863 24.7154L21.7167 24.6984L21.7457 22.6986L22.9153 22.7156L22.8863 24.7154ZM21.1689 22.8716L21.5927 22.5834L22.7173 24.2373L22.2935 24.5254L21.1689 22.8716ZM21.6087 22.5727C22.5914 21.9319 23.6521 21.7122 24.7379 22.0259L24.1828 23.9473C23.7429 23.8202 23.2781 23.8718 22.7013 24.248L21.6087 22.5727Z" fill="#CFCFCE" mask="url(#path-4-inside-1_956_320)"/>
<path d="M29.5801 11.0397C29.5801 14.8284 26.5088 17.8997 22.7201 17.8997C18.9314 17.8997 15.8601 14.8284 15.8601 11.0397C15.8601 7.25101 18.9314 4.17969 22.7201 4.17969C26.5088 4.17969 29.5801 7.25101 29.5801 11.0397Z" stroke="#CFCFCE"/>
<circle cx="15.4399" cy="5.52" r="5.02" stroke="#CFCFCE"/>
</svg>
