<svg width="41" height="40" viewBox="0 0 41 40" fill="none" xmlns="http://www.w3.org/2000/svg">
<path d="M38.1343 22.9692C39.8633 23.4608 40.5922 25.4102 39.5921 26.8849C39.4395 27.1053 39.1005 27.4274 38.7615 27.6816C36.7612 29.1055 28.1841 34.9027 27.8281 35.0722C27.6077 35.174 27.1331 35.3265 26.7941 35.4113C26.2008 35.5638 25.9296 35.5638 19.895 35.5638H13.6232L11.4195 37.7675L9.23284 39.9541L4.63913 36.4114C2.11343 34.462 0.04541 32.8347 0.04541 32.8008C0.062361 32.733 1.41844 31.4278 5.87655 27.1392C7.48689 25.5797 7.75811 25.3593 8.33444 25.0712C9.52101 24.4779 9.21589 24.4948 17.2846 24.5287L24.4548 24.5457L24.8956 24.7491C25.8109 25.1729 26.3194 25.9357 26.3533 26.9527C26.4042 27.8342 26.2347 28.2579 25.6245 28.8682C24.8108 29.6818 25.082 29.631 19.9459 29.6649C16.9116 29.6818 15.4878 29.7157 15.42 29.7666C15.2674 29.8852 15.3013 30.1734 15.4539 30.326C15.5895 30.4446 16.0471 30.4616 20.4544 30.4616C23.1157 30.4616 25.421 30.4277 25.5566 30.3938C25.6923 30.3599 28.1332 28.7326 30.981 26.7832C33.8287 24.8508 36.3205 23.1896 36.5239 23.0879C36.9816 22.8845 37.6597 22.8336 38.1343 22.9692Z" fill="#5BA5C3"/>
<path d="M32.6929 22.9356C33.3201 23.0882 34.0998 23.6306 33.9303 23.8001C33.8455 23.9018 26.8956 28.6481 26.8617 28.6311C26.8617 28.6311 26.9295 28.4108 27.0143 28.1565C27.2008 27.6141 27.2177 26.7665 27.0821 26.241C26.9634 25.8173 26.7939 25.9698 29.2688 24.2917C30.7435 23.3085 31.2012 23.0373 31.5233 22.9526C31.9979 22.8678 32.32 22.8509 32.6929 22.9356Z" fill="#A2C7E2"/>
<path d="M28.1332 22.9359C28.4383 23.0207 29.0994 23.3427 29.0994 23.3936C29.0994 23.4275 28.523 23.8343 27.845 24.3089L26.5906 25.1565L26.3703 24.8853C26.2516 24.7327 25.9295 24.4615 25.6753 24.292L25.2006 23.9869L25.7261 23.6139C26.0143 23.4105 26.4042 23.1732 26.5737 23.0885C26.9635 22.919 27.7772 22.8511 28.1332 22.9359Z" fill="#A2C7E2"/>
<path d="M24.5057 22.9866C24.7092 23.0544 24.8787 23.1222 24.8787 23.173C24.8787 23.2239 24.7092 23.3595 24.4888 23.4782L24.0989 23.7324L22.9462 23.7155L21.7766 23.6985L22.2004 23.4104C22.9802 22.9018 23.7429 22.7662 24.5057 22.9866Z" fill="#A2C7E2"/>
<path fill-rule="evenodd" clip-rule="evenodd" d="M15.4854 11.0383C18.534 11.0383 21.0054 8.56695 21.0054 5.51833C21.0054 4.97343 20.9264 4.44696 20.7793 3.94975C21.4111 3.77314 22.0771 3.67871 22.7652 3.67871C26.8301 3.67871 30.1252 6.9739 30.1252 11.0387C30.1252 15.1035 26.8301 18.3987 22.7652 18.3987C18.7004 18.3987 15.4052 15.1035 15.4052 11.0387C15.4052 11.0384 15.4052 11.0381 15.4052 11.0378C15.4319 11.0381 15.4586 11.0383 15.4854 11.0383Z" fill="#A2C7E2"/>
<path fill-rule="evenodd" clip-rule="evenodd" d="M15.4054 11.0394C12.3936 10.9967 9.96533 8.54193 9.96533 5.52C9.96533 2.47139 12.4367 0 15.4853 0C17.9891 0 20.1035 1.6669 20.7793 3.95148C17.6796 4.81813 15.4058 7.66322 15.4054 11.0394Z" fill="#5BA5C3"/>
<path fill-rule="evenodd" clip-rule="evenodd" d="M15.4854 11.0388C18.534 11.0388 21.0054 8.56739 21.0054 5.51878C21.0054 4.97387 20.9264 4.44741 20.7793 3.9502C17.6795 4.81677 15.4056 7.66192 15.4052 11.0382C15.4319 11.0386 15.4586 11.0388 15.4854 11.0388Z" fill="url(#paint0_linear_956_236)"/>
<defs>
<linearGradient id="paint0_linear_956_236" x1="21.0053" y1="9.59886" x2="16.1254" y2="5.75869" gradientUnits="userSpaceOnUse">
<stop stop-color="#5BA5C3"/>
<stop offset="1" stop-color="#3A5895"/>
</linearGradient>
</defs>
</svg>
