<svg width="40" height="40" viewBox="0 0 40 40" fill="none" xmlns="http://www.w3.org/2000/svg">
<path d="M15.275 29.6588C16.0331 33.1443 16.9479 36.31 17.4832 38.0565L15.275 29.6588ZM15.275 29.6588C16.9027 29.87 18.5088 30 20 30C21.4869 30 23.0928 29.87 24.725 29.6582C23.9668 33.144 23.052 36.31 22.5167 38.0567C22.3305 38.6642 22.2625 38.8816 22.1441 39.1777L22.1441 39.1779C22.1152 39.25 22.0861 39.3195 22.0535 39.3932C21.3788 39.4637 20.6936 39.5 20 39.5C19.3063 39.5 18.6211 39.4637 17.9465 39.3932C17.9139 39.3195 17.8847 39.25 17.8559 39.1779L17.8558 39.1777C17.7374 38.8817 17.6697 38.6646 17.4832 38.0566L15.275 29.6588ZM38.7132 14.4978C39.2252 16.2422 39.5 18.0885 39.5 20C39.5 20.6937 39.4638 21.3789 39.3932 22.0535C39.3195 22.0861 39.2501 22.1153 39.1779 22.1441L39.1778 22.1442C38.8817 22.2626 38.6646 22.3303 38.0566 22.5168C36.3099 23.0521 33.144 23.9669 29.6583 24.7251C29.8701 23.0929 30 21.4869 30 20C30 18.9724 29.9379 17.8883 29.8298 16.7783C33.4551 16.0209 36.7671 15.0833 38.7132 14.4978ZM17.8559 0.822165L17.8559 0.822074C17.8847 0.749969 17.9139 0.680513 17.9465 0.606806C18.6211 0.536216 19.3063 0.5 20 0.5C20.7107 0.5 21.4122 0.537987 22.1028 0.612027C22.1493 0.767202 22.2126 0.96845 22.2999 1.24603L22.3092 1.27579L22.3095 1.27657L22.3222 1.31693C22.918 3.21059 24.4634 8.37914 25.3502 13.5317C23.4683 13.8188 21.6321 14 20 14C18.3679 14 16.5319 13.8189 14.65 13.5317C15.4501 8.88348 16.7867 4.21645 17.4832 1.94347C17.6697 1.33546 17.7375 1.11823 17.8559 0.822165ZM10.3418 24.725C9.39556 24.5194 8.46964 24.3014 7.58506 24.0814C3.74454 23.1259 0.814729 22.1629 0.637234 22.1042C0.633217 22.1028 0.629182 22.1015 0.62513 22.1002L0.624143 22.0999L0.62203 22.0992L0.621191 22.0989L0.611244 22.0956C0.537726 21.4072 0.5 20.7081 0.5 20C0.5 18.0885 0.774873 16.2422 1.28695 14.4977C3.23303 15.0833 6.54496 16.0209 10.1702 16.7783C10.0621 17.888 10 18.9722 10 20C10 21.4868 10.1299 23.0928 10.3418 24.725ZM14 20C14 19.2082 14.0426 18.3674 14.1196 17.4957C16.1459 17.8021 18.1641 18 20 18C21.836 18 23.8542 17.8021 25.8806 17.4957C25.9574 18.3672 26 19.2079 26 20C26 21.6778 25.8087 23.571 25.5075 25.5075C23.571 25.8087 21.6778 26 20 26C18.3295 26 16.437 25.8091 14.4924 25.5069C14.1913 23.5704 14 21.6776 14 20ZM26.6055 1.647C31.1558 3.28502 34.9224 6.56807 37.1865 10.779C35.2813 11.3443 32.3916 12.1443 29.2825 12.8058C28.5278 8.43347 27.3477 4.14365 26.6055 1.647ZM13.3946 1.64696C12.6562 4.13135 11.4734 8.42523 10.7173 12.8058C7.60828 12.1443 4.71862 11.3443 2.81352 10.7789C5.07766 6.56802 8.84423 3.28497 13.3946 1.64696ZM13.3946 38.3529C7.93901 36.389 3.61086 32.0609 1.64702 26.6054C2.92548 26.9852 4.6575 27.4749 6.61927 27.963C7.99244 28.3047 9.49465 28.6498 11.0442 28.9563C11.784 32.6984 12.7554 36.2025 13.3946 38.3529ZM26.6053 38.3529C27.2446 36.2024 28.2161 32.698 28.9559 28.9559C32.698 28.2161 36.2024 27.2446 38.3529 26.6053C36.389 32.0609 32.0609 36.389 26.6053 38.3529Z" stroke="#CFCFCE" stroke-linejoin="round"/>
</svg>
