<svg width="40" height="40" viewBox="0 0 40 40" fill="none" xmlns="http://www.w3.org/2000/svg">
<path d="M26.328 16.9199C26.4374 17.9917 26.5 19.0291 26.5 19.9999C26.5 21.8173 26.2804 23.8695 25.9444 25.9443C23.8696 26.2803 21.8174 26.4999 20 26.4999C18.1908 26.4999 16.1394 26.2809 14.0555 25.9437C13.7196 23.8689 13.5 21.8171 13.5 19.9999C13.5 19.0295 13.5626 17.9919 13.6722 16.9199C15.8592 17.2701 18.041 17.4999 20 17.4999C21.9592 17.4999 24.141 17.2701 26.328 16.9199Z" fill="#D0696B"/>
<path d="M29.2863 16.3796C29.4215 17.634 29.5 18.8552 29.5 19.9998C29.5 21.6702 29.3329 23.5026 29.0667 25.3622C32.8429 24.5742 36.3335 23.5676 38.2033 22.9946C38.8077 22.8092 39.0448 22.7356 39.3634 22.6082C39.5226 22.5446 39.6686 22.4798 39.8588 22.3888C39.952 21.6056 40 20.8082 40 19.9998C40 17.8626 39.6649 15.8039 39.0443 13.873L38.8825 13.9239C36.9275 14.5187 33.2671 15.5703 29.2863 16.3796Z" fill="url(#paint0_linear_956_263)"/>
<path d="M37.9079 11.0843C35.9423 11.68 32.5313 12.648 28.8759 13.4016C28.0339 8.28392 26.5579 3.17964 25.8479 0.868164C31.1279 2.48012 35.4805 6.21804 37.9079 11.0843Z" fill="url(#paint1_linear_956_263)"/>
<path d="M25.927 13.9472C23.8578 14.2815 21.812 14.5 20 14.5C18.188 14.5 16.1424 14.2816 14.0732 13.9472C14.8662 9.10486 16.2816 4.1582 17.0052 1.79682C17.1906 1.1925 17.2642 0.95512 17.3916 0.63652C17.4552 0.47738 17.52 0.3314 17.611 0.14122C18.3942 0.0479801 19.1916 0 20 0C20.8446 0 21.6768 0.0523398 22.4938 0.15398C22.5112 0.22026 22.5272 0.2796 22.543 0.33572C22.5898 0.50158 22.6632 0.73468 22.7862 1.12578L22.7992 1.16688C23.4162 3.12806 25.0512 8.59812 25.927 13.9472Z" fill="url(#paint2_linear_956_263)"/>
<path d="M11.1238 13.4015C11.9621 8.30644 13.4283 3.22966 14.1369 0.917384L14.152 0.868164C8.8719 2.48012 4.5194 6.21802 2.09204 11.0843C4.05744 11.68 7.46844 12.6479 11.1238 13.4015Z" fill="url(#paint3_linear_956_263)"/>
<path d="M0.95588 13.873C0.3352 15.8039 0 17.8626 0 19.9998C0 20.8358 0.0512999 21.6598 0.15092 22.469L0.46612 22.574L0.46862 22.5748L0.47172 22.5758L0.47388 22.5766C0.57534 22.6102 3.54868 23.5922 7.46434 24.5664C8.56926 24.8412 9.73918 25.113 10.9334 25.362C10.6671 23.5024 10.5 21.67 10.5 19.9998C10.5 18.8548 10.5786 17.6336 10.7138 16.3796C6.73196 15.57 3.07082 14.5181 1.11612 13.9234L1.10254 13.9193L0.95588 13.873Z" fill="url(#paint4_linear_956_263)"/>
<path d="M20 29.4998C21.6704 29.4998 23.5028 29.3326 25.3624 29.0664C24.5744 32.8426 23.5678 36.3332 22.9948 38.203C22.8096 38.8072 22.7358 39.0446 22.6084 39.3632C22.5448 39.5224 22.48 39.6684 22.389 39.8586C21.6058 39.9518 20.8084 39.9998 20 39.9998C19.1916 39.9998 18.3942 39.9518 17.611 39.8586C17.52 39.6684 17.4552 39.5224 17.3916 39.3632C17.2642 39.0446 17.1906 38.8074 17.0052 38.203C16.4322 36.3334 15.4257 32.843 14.6377 29.067C16.4912 29.3324 18.324 29.4998 20 29.4998Z" fill="url(#paint5_linear_956_263)"/>
<path d="M6.73991 27.4775C4.26377 26.8615 2.15487 26.2427 0.868408 25.8477C2.80483 32.1905 7.80909 37.1947 14.152 39.1311L14.1369 39.0819C13.5181 37.0629 12.3217 32.9363 11.4702 28.5299C9.81421 28.2097 8.20415 27.8419 6.73991 27.4775Z" fill="url(#paint6_linear_956_263)"/>
<path d="M39.0821 25.8627C37.0631 26.4815 32.9361 27.6779 28.5297 28.5295C27.6781 32.9359 26.4817 37.0629 25.8629 39.0819L25.8479 39.1311C32.1907 37.1947 37.1949 32.1905 39.1313 25.8477L39.0821 25.8627Z" fill="url(#paint7_linear_956_263)"/>
<path d="M0.209961 22.5195C0.279201 22.5285 0.335621 22.5379 0.354341 22.5421C0.370761 22.5463 0.396441 22.5529 0.405781 22.5555L0.426361 22.5615L0.437441 22.5647L0.449101 22.5683L0.458861 22.5715C0.453381 22.5697 0.342261 22.5419 0.209961 22.5195Z" fill="url(#paint8_linear_956_263)"/>
<defs>
<linearGradient id="paint0_linear_956_263" x1="41.12" y1="17.5198" x2="29.12" y2="20.8798" gradientUnits="userSpaceOnUse">
<stop stop-color="#F39934"/>
<stop offset="1" stop-color="#D0696B"/>
</linearGradient>
<linearGradient id="paint1_linear_956_263" x1="34.6399" y1="3.75973" x2="29.1199" y2="13.4397" gradientUnits="userSpaceOnUse">
<stop stop-color="#F39934"/>
<stop offset="1" stop-color="#D0696B"/>
</linearGradient>
<linearGradient id="paint2_linear_956_263" x1="20.0001" y1="0" x2="20.0001" y2="14.5" gradientUnits="userSpaceOnUse">
<stop stop-color="#F39934"/>
<stop offset="1" stop-color="#D0696B"/>
</linearGradient>
<linearGradient id="paint3_linear_956_263" x1="4.47993" y1="5.43973" x2="11.0399" y2="13.4397" gradientUnits="userSpaceOnUse">
<stop stop-color="#F39934"/>
<stop offset="1" stop-color="#D0696B"/>
</linearGradient>
<linearGradient id="paint4_linear_956_263" x1="-7.02157e-08" y1="18.3998" x2="12.08" y2="20.9598" gradientUnits="userSpaceOnUse">
<stop stop-color="#F39934"/>
<stop offset="1" stop-color="#D0696B"/>
</linearGradient>
<linearGradient id="paint5_linear_956_263" x1="20.0001" y1="29.0664" x2="20.0001" y2="39.9998" gradientUnits="userSpaceOnUse">
<stop stop-color="#D0696B"/>
<stop offset="1" stop-color="#F39934"/>
</linearGradient>
<linearGradient id="paint6_linear_956_263" x1="11.4399" y1="29.2797" x2="5.27989" y2="35.6797" gradientUnits="userSpaceOnUse">
<stop stop-color="#D0696B"/>
<stop offset="1" stop-color="#F39934"/>
</linearGradient>
<linearGradient id="paint7_linear_956_263" x1="28.0799" y1="28.2397" x2="35.7599" y2="37.5997" gradientUnits="userSpaceOnUse">
<stop stop-color="#D0696B"/>
<stop offset="1" stop-color="#F39934"/>
</linearGradient>
<linearGradient id="paint8_linear_956_263" x1="0.334411" y1="22.5195" x2="0.334411" y2="22.5715" gradientUnits="userSpaceOnUse">
<stop stop-color="white"/>
<stop offset="1" stop-color="#999999"/>
</linearGradient>
</defs>
</svg>
