<?xml version="1.0" encoding="utf-8"?>
<!-- Generator: Adobe Illustrator 26.0.3, SVG Export Plug-In . SVG Version: 6.00 Build 0)  -->
<svg version="1.0" id="Layer_1" xmlns="http://www.w3.org/2000/svg" xmlns:xlink="http://www.w3.org/1999/xlink" x="0px" y="0px"
	 viewBox="0 0 244 167" style="enable-background:new 0 0 244 167;" xml:space="preserve">
<path d="M25,74.4h17.4l17.8,17.8H42.4V110L25,92.2V74.4z M25,57h35.2v17.4H42.4L25,57z"/>
<polygon points="93.5,94.6 93.5,68.3 109.7,68.3 109.7,73.6 99.6,73.6 99.6,80.5 109.7,80.5 109.7,85.7 99.6,85.7 99.6,94.6 "/>
<path d="M113.3,94.6V76.4h6.1v4.1c0.1-1.3,0.7-2.4,1.6-3.3c0.9-0.8,2.1-1.2,3.3-1.2c0.8,0,1.2,0.4,1.6,0.4v5.3h-1.6
	c-1.4-0.2-2.8,0.5-3.7,1.6c-0.8,0.8-1.2,2.4-1.2,4.4v6.9L113.3,94.6z"/>
<path d="M137.2,90.6c1.3,0.2,2.6-0.5,3.2-1.6c0.8-0.9,1.2-2,1.2-3.2c0-1.3-0.4-2.6-1.2-3.6c-0.8-0.9-2-1.3-3.2-1.2
	c-1.2,0-2.4,0.4-3.3,1.2c-0.8,1-1.3,2.3-1.2,3.6c0,1.2,0.4,2.4,1.2,3.2C134.7,90,135.9,90.6,137.2,90.6z M135.6,95.4
	c-2.5,0-4.8-1-6.5-2.8c-1.4-2-2.1-4.4-2-6.9c0-1.6,0.3-3.3,0.8-4.8c0.7-1.5,1.9-2.7,3.2-3.7c1.3-0.8,2.9-1.2,4.5-1.2
	c1.2,0.1,2.5,0.3,3.6,0.8c1,0.5,1.7,1.4,2,2.4v-2.9h6.1v18.2h-6.1v-2.4c-0.5,0.9-1.2,1.7-2,2.4C138.1,95.1,136.9,95.3,135.6,95.4z"
	/>
<path d="M151.8,94.6V76.4h5.7v2.9c0.4-1.2,1.2-1.6,2-2.4c1-0.5,2.1-0.7,3.3-0.8c2.8,0,4.9,1.2,5.7,3.3c0.8-0.8,1.6-1.6,2.4-2.4
	c1.2-0.5,2.4-0.7,3.7-0.8c4.4,0,6.5,2.4,6.5,7.3v11.3h-5.7V84.5c0-1-0.3-2-0.8-2.8c-0.6-0.5-1.3-0.8-2.1-0.8c-1-0.1-1.9,0.4-2.4,1.2
	c-0.6,1-0.9,2.1-0.8,3.2v9.3h-5.7V84.5c0-1-0.3-2-0.8-2.8c-0.5-0.5-1.3-0.8-2-0.8c-0.9,0.1-1.8,0.5-2.4,1.2c-0.6,1-0.9,2.1-0.8,3.2
	v9.3L151.8,94.6z"/>
<path d="M189.9,83.7h7.7c0-1-0.3-2-0.8-2.8c-0.8-0.8-1.6-0.8-2.8-0.8c-1.1,0-2.2,0.3-3.2,0.8C190.2,81.7,189.9,82.7,189.9,83.7z
	 M203.2,84.5v2.8h-13.4c0,1.1,0.4,2.1,1.2,2.8c0.8,0.6,1.8,0.9,2.8,0.8c2,0,2.8-0.4,3.6-1.6h5.7c-0.4,1.9-1.6,3.5-3.2,4.4
	c-1.9,1-4,1.6-6.1,1.6c-3.2,0-5.7-0.8-7.3-2.8c-1.8-1.8-2.9-4.3-2.9-6.9c0-2.7,1-5.3,2.9-7.3c1.6-1.6,4-2.4,7.3-2.4
	c2.5-0.1,5,0.8,6.9,2.4C202.4,80,203.3,82.2,203.2,84.5L203.2,84.5z"/>
<path d="M206.5,94.6V76.4h5.7v4.1c0.4-1.2,1.1-2.3,2-3.3c0.9-0.8,2-1.2,3.2-1.2c0.4,0,1.2,0.4,1.6,0.4v5.3h-2
	c-1.3-0.1-2.5,0.6-3.2,1.6c-1.2,0.8-1.6,2.4-1.6,4.4v6.9L206.5,94.6z"/>
</svg>
