<svg xmlns="http://www.w3.org/2000/svg" width="800" height="178.59" viewBox="0 0 800 178.59"><path d="M349.79,438.59A31.94,31.94,0,0,0,327.23,416c-19.88-5.34-99.67-5.34-99.67-5.34s-79.78,0-99.67,5.34a32,32,0,0,0-22.56,22.55C100,458.48,100,500,100,500s0,41.52,5.33,61.41A32,32,0,0,0,127.89,584c19.89,5.34,99.67,5.34,99.67,5.34s79.79,0,99.67-5.34a31.94,31.94,0,0,0,22.56-22.55c5.33-19.89,5.33-61.41,5.33-61.41S355.1,458.48,349.79,438.59Z" transform="translate(-100 -410.7)" fill="red"/><path d="M202,538.27,268.31,500,202,461.74Z" transform="translate(-100 -410.7)" fill="#fff"/><path d="M409,526.82,380.34,423.37h25l10,46.89q3.84,17.34,5.64,29.55h.74q1.26-8.74,5.65-29.38l10.39-47.06h25l-29,103.45v49.63H409V526.82Z" transform="translate(-100 -410.7)" fill="#212121"/><path d="M470.31,573.17q-7.56-5.1-10.77-15.88t-3.19-28.65V512.41q0-18,3.65-29t11.41-16q7.74-5,20.35-5,12.4,0,19.88,5.1c5,3.4,8.64,8.74,11,16s3.46,16.89,3.46,28.92v16.23q0,17.9-3.38,28.73t-10.94,15.88q-7.56,5-20.52,5C482.31,578.29,475.35,576.57,470.31,573.17Zm28.27-17.52c1.39-3.65,2.1-9.59,2.1-17.87V502.94c0-8-.69-13.9-2.1-17.6s-3.86-5.56-7.39-5.56-5.82,1.84-7.2,5.56-2.1,9.58-2.1,17.6v34.84q0,12.42,2,17.87c1.35,3.66,3.76,5.48,7.29,5.48S497.17,559.31,498.58,555.65Z" transform="translate(-100 -410.7)" fill="#212121"/><path d="M607.35,576.47h-19.7l-2.19-13.69h-.54q-8,15.5-24.09,15.49c-7.41,0-12.9-2.43-16.42-7.28s-5.3-12.48-5.3-22.81V464.62H564.3v82.09q0,7.5,1.63,10.67a5.69,5.69,0,0,0,5.48,3.19,11.19,11.19,0,0,0,6.3-2,12.62,12.62,0,0,0,4.48-5.11V464.59h25.16Z" transform="translate(-100 -410.7)" fill="#212121"/><path d="M675.75,443.63h-25V576.46H626.12V443.63h-25V423.39h74.62Z" transform="translate(-100 -410.7)" fill="#212121"/><path d="M736.48,576.47h-19.7l-2.18-13.69h-.55q-8,15.5-24.08,15.49-11.13,0-16.43-7.28t-5.29-22.81V464.62h25.18v82.09q0,7.5,1.64,10.67a5.69,5.69,0,0,0,5.48,3.19,11.24,11.24,0,0,0,6.3-2,12.52,12.52,0,0,0,4.47-5.11V464.59h25.16Z" transform="translate(-100 -410.7)" fill="#212121"/><path d="M819.82,482.49c-1.54-7.06-4-12.16-7.39-15.33s-8.09-4.75-14-4.75a23.2,23.2,0,0,0-13,3.93,26.64,26.64,0,0,0-9.31,10.31h-.18V417.72H751.67V576.45h20.79L775,565.86h.55a21.5,21.5,0,0,0,8.76,8.95,26,26,0,0,0,12.95,3.27q12.76,0,18.8-11.76t6-36.77v-17.7C822.11,499.35,821.33,489.54,819.82,482.49Zm-23.08,45.63a140.87,140.87,0,0,1-1,19.15q-1,6.94-3.38,9.85A7.78,7.78,0,0,1,786,560a11.5,11.5,0,0,1-5.75-1.47,11,11,0,0,1-4.28-4.36V490.72a15.74,15.74,0,0,1,4.38-7.48,9.67,9.67,0,0,1,6.75-2.92,6.79,6.79,0,0,1,5.92,3c1.41,2,2.37,5.37,2.92,10.12a190.9,190.9,0,0,1,.82,20.24v14.43Z" transform="translate(-100 -410.7)" fill="#212121"/><path d="M857.83,534.57a151.43,151.43,0,0,0,.63,16.15c.42,3.59,1.3,6.19,2.65,7.85s3.4,2.46,6.19,2.46c3.76,0,6.36-1.47,7.75-4.39s2.16-7.79,2.29-14.59l21.72,1.28a34.46,34.46,0,0,1,.18,4q0,15.49-8.48,23.16t-24,7.67q-18.63,0-26.09-11.68t-7.47-36.12V510.84q0-25.17,7.75-36.78t26.54-11.59q12.94,0,19.89,4.75c4.62,3.17,7.87,8.08,9.76,14.78S900,497.94,900,509.75V528.9H857.83ZM861,481.86c-1.28,1.57-2.12,4.15-2.56,7.75a153.77,153.77,0,0,0-.63,16.33v8h18.42v-8a134.45,134.45,0,0,0-.74-16.33c-.48-3.72-1.36-6.33-2.64-7.86s-3.26-2.29-5.93-2.29S862.28,480.28,861,481.86Z" transform="translate(-100 -410.7)" fill="#212121"/></svg>