<svg width="810" height="807" viewBox="0 0 810 807" fill="none" xmlns="http://www.w3.org/2000/svg">
<path d="M185.036 429V361.8H225.548V369.096H193.004V393.384H222.86V400.392H193.004V429H185.036ZM238.544 429V378.12H246.032V383.592H246.224C247.248 381.544 248.752 379.976 250.736 378.888C252.72 377.8 254.736 377.256 256.784 377.256C257.552 377.256 258.288 377.352 258.992 377.544C259.76 377.672 260.336 377.8 260.72 377.928L261.2 378.216L259.76 385.992C258.8 385.48 257.456 385.224 255.728 385.224C252.464 385.224 250.096 386.312 248.624 388.488C247.152 390.6 246.416 394.024 246.416 398.76V429H238.544ZM307.433 413.352L313.769 417.48C311.849 421.192 309.097 424.296 305.513 426.792C301.993 429.224 297.641 430.44 292.457 430.44C285.545 430.44 279.881 428.008 275.465 423.144C271.049 418.216 268.841 411.688 268.841 403.56C268.841 395.432 270.985 388.936 275.273 384.072C279.625 379.144 285.225 376.68 292.073 376.68C298.857 376.68 304.361 379.08 308.585 383.88C312.809 388.68 314.921 395.24 314.921 403.56V405.864H276.713C276.777 410.728 278.121 414.856 280.745 418.248C283.433 421.64 287.273 423.336 292.265 423.336C294.185 423.336 295.977 423.08 297.641 422.568C299.305 421.992 300.585 421.448 301.481 420.936C302.377 420.36 303.305 419.464 304.265 418.248C305.289 416.968 305.897 416.136 306.089 415.752C306.345 415.368 306.793 414.568 307.433 413.352ZM276.905 399.624H307.145C307.017 395.336 305.737 391.624 303.305 388.488C300.873 385.352 297.129 383.784 292.073 383.784C287.145 383.784 283.401 385.48 280.841 388.872C278.281 392.2 276.969 395.784 276.905 399.624ZM363.12 413.352L369.456 417.48C367.536 421.192 364.784 424.296 361.2 426.792C357.68 429.224 353.328 430.44 348.144 430.44C341.232 430.44 335.568 428.008 331.152 423.144C326.736 418.216 324.528 411.688 324.528 403.56C324.528 395.432 326.672 388.936 330.96 384.072C335.312 379.144 340.912 376.68 347.76 376.68C354.544 376.68 360.048 379.08 364.272 383.88C368.496 388.68 370.608 395.24 370.608 403.56V405.864H332.4C332.464 410.728 333.808 414.856 336.432 418.248C339.12 421.64 342.96 423.336 347.952 423.336C349.872 423.336 351.664 423.08 353.328 422.568C354.992 421.992 356.272 421.448 357.168 420.936C358.064 420.36 358.992 419.464 359.952 418.248C360.976 416.968 361.584 416.136 361.776 415.752C362.032 415.368 362.48 414.568 363.12 413.352ZM332.592 399.624H362.832C362.704 395.336 361.424 391.624 358.992 388.488C356.56 385.352 352.816 383.784 347.76 383.784C342.832 383.784 339.088 385.48 336.528 388.872C333.968 392.2 332.656 395.784 332.592 399.624ZM440.6 412.104V396.36C440.6 393.16 439.416 390.28 437.048 387.72C434.68 385.096 431.512 383.784 427.544 383.784C422.488 383.784 418.648 385.512 416.024 388.968C413.4 392.424 412.088 397.288 412.088 403.56C412.088 409.832 413.4 414.696 416.024 418.152C418.648 421.608 422.488 423.336 427.544 423.336C431.256 423.336 434.36 422.216 436.856 419.976C439.352 417.736 440.6 415.112 440.6 412.104ZM441.368 429V424.104H441.176C439.832 425.704 437.848 427.176 435.224 428.52C432.664 429.8 429.688 430.44 426.296 430.44C419.576 430.44 414.2 428.008 410.168 423.144C406.2 418.28 404.216 411.752 404.216 403.56C404.216 395.432 406.296 388.936 410.456 384.072C414.68 379.144 419.96 376.68 426.296 376.68C432.12 376.68 436.824 378.792 440.408 383.016H440.6V358.92H448.472V429H441.368ZM499.995 413.352L506.331 417.48C504.411 421.192 501.659 424.296 498.075 426.792C494.555 429.224 490.203 430.44 485.019 430.44C478.107 430.44 472.443 428.008 468.027 423.144C463.611 418.216 461.403 411.688 461.403 403.56C461.403 395.432 463.547 388.936 467.835 384.072C472.187 379.144 477.787 376.68 484.635 376.68C491.419 376.68 496.923 379.08 501.147 383.88C505.371 388.68 507.483 395.24 507.483 403.56V405.864H469.275C469.339 410.728 470.683 414.856 473.307 418.248C475.995 421.64 479.835 423.336 484.827 423.336C486.747 423.336 488.539 423.08 490.203 422.568C491.867 421.992 493.147 421.448 494.043 420.936C494.939 420.36 495.867 419.464 496.827 418.248C497.851 416.968 498.459 416.136 498.651 415.752C498.907 415.368 499.355 414.568 499.995 413.352ZM469.467 399.624H499.707C499.579 395.336 498.299 391.624 495.867 388.488C493.435 385.352 489.691 383.784 484.635 383.784C479.707 383.784 475.963 385.48 473.403 388.872C470.843 392.2 469.531 395.784 469.467 399.624ZM520.451 429V378.12H527.555V383.016H527.747C528.963 381.16 530.755 379.656 533.123 378.504C535.491 377.288 538.019 376.68 540.707 376.68C543.907 376.68 546.627 377.416 548.867 378.888C551.171 380.296 552.931 382.056 554.147 384.168H554.339C555.555 382.12 557.411 380.36 559.907 378.888C562.467 377.416 565.379 376.68 568.643 376.68C574.019 376.68 578.275 378.28 581.411 381.48C584.611 384.616 586.211 388.904 586.211 394.344V429H578.627V396.744C578.627 388.168 575.171 383.88 568.259 383.88C564.739 383.88 561.987 384.968 560.003 387.144C558.083 389.256 557.123 392.232 557.123 396.072V429H549.539V396.744C549.539 388.168 546.083 383.88 539.171 383.88C535.459 383.88 532.707 385.032 530.915 387.336C529.123 389.576 528.227 392.488 528.227 396.072V429H520.451ZM621.789 423.336C626.077 423.336 629.629 421.608 632.445 418.152C635.325 414.632 636.765 409.768 636.765 403.56C636.765 397.352 635.357 392.52 632.541 389.064C629.725 385.544 626.141 383.784 621.789 383.784C617.309 383.784 613.629 385.512 610.749 388.968C607.869 392.36 606.429 397.224 606.429 403.56C606.429 409.896 607.869 414.792 610.749 418.248C613.629 421.64 617.309 423.336 621.789 423.336ZM621.789 430.44C615.069 430.44 609.533 428.072 605.181 423.336C600.829 418.6 598.653 412.008 598.653 403.56C598.653 395.24 600.893 388.68 605.373 383.88C609.853 379.08 615.325 376.68 621.789 376.68C628.189 376.68 633.565 379.08 637.917 383.88C642.333 388.68 644.541 395.24 644.541 403.56C644.541 412.008 642.397 418.6 638.109 423.336C633.821 428.072 628.381 430.44 621.789 430.44Z" fill="#676769"/>
<path d="M376.203 774.831C373.075 774.613 370.467 775.665 368.38 777.989C366.258 780.343 365.032 783.882 364.702 788.607C364.376 793.267 365.133 796.897 366.972 799.496C368.777 802.124 371.18 803.543 374.181 803.753C377.277 803.969 379.93 802.952 382.141 800.701C384.319 798.447 385.572 794.99 385.897 790.329C386.23 785.573 385.496 781.849 383.695 779.157C381.893 776.496 379.395 775.055 376.203 774.831ZM376.414 771.815C378.297 771.946 380.03 772.404 381.611 773.189C383.192 773.973 384.606 775.082 385.853 776.517C387.098 777.983 388.038 779.909 388.673 782.295C389.274 784.711 389.466 787.467 389.249 790.564C388.868 796.022 387.199 800.156 384.244 802.965C381.289 805.774 377.864 807.042 373.97 806.769C370.171 806.504 367.022 804.744 364.523 801.49C362.024 798.235 360.966 793.863 361.35 788.372C361.567 785.276 362.139 782.589 363.069 780.313C363.998 778.036 365.179 776.274 366.614 775.027C368.014 773.81 369.535 772.938 371.176 772.411C372.816 771.884 374.562 771.685 376.414 771.815Z" fill="#676769"/>
<path d="M336.031 767.331L329.045 800.197L309.608 796.065L310.206 793.248L326.592 796.731L329.337 783.82L314.266 780.616L314.844 777.893L329.916 781.097L332.979 766.683L336.031 767.331Z" fill="#676769"/>
<path d="M285.957 754.259L274.465 785.833L255.791 779.036L256.776 776.33L272.518 782.059L277.032 769.655L262.554 764.385L263.506 761.769L277.985 767.039L283.025 753.192L285.957 754.259Z" fill="#676769"/>
<path d="M238.583 734.555L222.809 764.222L205.305 754.915L206.657 752.372L221.406 760.214L227.039 749.619L213.477 742.408L214.784 739.95L228.346 747.161L234.476 735.633L219.727 727.791L221.079 725.248L238.583 734.555Z" fill="#676769"/>
<path d="M195.119 709.039L175.369 736.222L165.117 728.774C162.27 726.705 160.539 724.459 159.926 722.036C159.288 719.594 159.937 717.04 161.874 714.373C163.511 712.121 165.433 710.809 167.642 710.436C169.851 710.063 172.13 710.492 174.479 711.724L176.751 695.694L179.663 697.81L177.282 713.583L184.272 718.661L192.595 707.205L195.119 709.039ZM182.579 720.991L175.006 715.489C173.065 714.079 171.175 713.359 169.338 713.329C167.474 713.28 165.828 714.24 164.398 716.207C161.709 719.909 162.59 723.378 167.043 726.613L174.538 732.058L182.579 720.991Z" fill="#676769"/>
<path d="M112.312 629.993C113.474 631.48 114.293 633.074 114.768 634.774C115.244 636.474 115.365 638.267 115.134 640.153C114.877 642.06 114.074 644.047 112.726 646.116C111.333 648.179 109.413 650.166 106.967 652.077C102.655 655.446 98.4671 656.972 94.4025 656.655C90.3378 656.338 87.1037 654.642 84.7002 651.565C82.6119 648.892 81.7257 645.991 82.0416 642.861C82.3126 639.725 83.6368 636.924 86.0142 634.458L88.4859 636.608C86.6633 638.641 85.5664 640.797 85.1953 643.077C84.7792 645.351 85.4085 647.56 87.0831 649.704C88.9941 652.15 91.5257 653.441 94.6778 653.577C97.8102 653.688 101.217 652.305 104.899 649.429C108.631 646.513 110.882 643.495 111.653 640.376C112.423 637.256 111.824 634.435 109.853 631.913C106.425 627.526 101.875 627.081 96.2021 630.579L94.5413 627.674C97.8596 625.528 101.111 624.673 104.294 625.11C107.433 625.541 110.106 627.168 112.312 629.993Z" fill="#676769"/>
<path d="M88.6385 597.411L59.5401 614.211L53.2041 603.237C51.4441 600.189 50.7769 597.433 51.2025 594.97C51.6122 592.48 53.2442 590.41 56.0986 588.762C58.5096 587.37 60.8 586.953 62.9696 587.511C65.1393 588.069 67.0463 589.388 68.6909 591.469L77.2865 577.749L79.0865 580.867L70.4956 594.307L74.8156 601.789L87.0785 594.709L88.6385 597.411ZM72.3215 603.229L67.6415 595.123C66.4415 593.045 65.0082 591.618 63.3417 590.844C61.6592 590.042 59.7648 590.248 57.6586 591.464C53.6957 593.752 53.0902 597.28 55.8422 602.046L60.4742 610.069L72.3215 603.229Z" fill="#676769"/>
<path d="M64.1116 550.302L32.9582 562.889L25.532 544.508L28.2023 543.429L34.4597 558.917L45.586 554.422L39.832 540.18L42.4133 539.137L48.1672 553.379L60.2725 548.488L54.0151 533L56.6854 531.921L64.1116 550.302Z" fill="#676769"/>
<path d="M41.5696 480.165L35.1523 484.387L39.0308 499.943L46.679 500.658L47.4338 503.685L11.9172 500.124L11.1275 496.957L40.8148 477.138L41.5696 480.165ZM15.2133 497.669L36.3883 499.662L32.9511 485.876L15.1901 497.576L15.2133 497.669Z" fill="#676769"/>
<path d="M35.8165 443.076L5.26478 446.287L6.3686 456.789L3.50438 457.09L0.97061 432.983L3.83483 432.682L4.93865 443.184L35.4904 439.973L35.8165 443.076Z" fill="#676769"/>
<path d="M33.7919 391.377L0.212402 390.204L0.321289 387.086L33.9008 388.259L33.7919 391.377Z" fill="#676769"/>
<path d="M37.374 335.752C37.9185 332.664 37.1442 329.96 35.0511 327.641C32.9319 325.286 29.5404 323.697 24.8763 322.874C20.2753 322.063 16.5864 322.436 13.8098 323.993C11.0072 325.514 9.34474 327.755 8.82241 330.718C8.2834 333.774 9.01785 336.52 11.0258 338.953C13.0392 341.355 16.3465 342.962 20.9475 343.773C25.6431 344.601 29.4236 344.261 32.2893 342.751C35.1234 341.236 36.8183 338.903 37.374 335.752ZM40.352 336.277C40.0242 338.136 39.3877 339.811 38.4425 341.302C37.4973 342.792 36.2462 344.083 34.6892 345.173C33.1008 346.258 31.0868 346.991 28.6474 347.373C26.182 347.718 23.4209 347.621 20.364 347.082C14.9752 346.132 11.0385 344.041 8.5541 340.808C6.06967 337.576 5.16642 334.037 5.84435 330.192C6.5056 326.442 8.58505 323.495 12.0827 321.349C15.5804 319.204 20.0394 318.609 25.4598 319.565C28.5166 320.104 31.1286 320.955 33.2957 322.117C35.4629 323.279 37.0916 324.638 38.1818 326.195C39.246 327.715 39.9543 329.318 40.3068 331.005C40.6592 332.692 40.6743 334.449 40.352 336.277Z" fill="#676769"/>
<path d="M48.8538 297.132L16.8983 286.749L18.2184 282.686L50.7639 276.807L50.7936 276.716L23.0836 267.712L24.0477 264.745L56.0032 275.128L54.7276 279.054L22.1376 285.07L22.108 285.161L49.818 294.164L48.8538 297.132Z" fill="#676769"/>
<path d="M122.942 161.196L97.9724 138.713L111.269 123.945L113.41 125.872L102.2 138.321L112.01 147.154L122.32 135.704L124.389 137.566L114.079 149.017L125.03 158.877L122.942 161.196Z" fill="#676769"/>
<path d="M151.721 116.439L137.158 99.0836L139.548 97.0781L153.926 114.213C157.752 118.773 161.847 119.222 166.21 115.56C168.367 113.75 169.524 111.819 169.681 109.765C169.842 107.667 168.987 105.502 167.115 103.272L152.675 86.0633L155.065 84.0578L169.628 101.413C172.097 104.355 173.196 107.234 172.927 110.049C172.638 112.84 171.046 115.45 168.154 117.877C165.261 120.304 162.415 121.418 159.616 121.218C156.821 120.974 154.19 119.381 151.721 116.439Z" fill="#676769"/>
<path d="M199.941 93.2608L182.136 64.7664L185.758 62.5026L214.468 78.9191L214.55 78.8682L199.11 54.1595L201.756 52.5062L219.561 81.0006L216.061 83.1881L187.228 66.8478L187.147 66.8987L202.587 91.6074L199.941 93.2608Z" fill="#676769"/>
<path d="M245.004 67.8083L231.337 37.1131L235.24 35.3756L261.386 55.628L261.474 55.589L249.623 28.9719L252.473 27.7029L266.139 58.398L262.368 60.077L236.091 39.8831L236.003 39.9222L247.854 66.5392L245.004 67.8083Z" fill="#676769"/>
<path d="M293.296 48.8396L284.035 16.5412L303.091 11.077L303.885 13.8454L287.828 18.4497L291.136 29.9848L305.901 25.751L306.668 28.4272L291.903 32.661L295.502 45.2112L311.559 40.607L312.352 43.3754L293.296 48.8396Z" fill="#676769"/>
<path d="M347.612 36.2532L342.935 2.98015L346.025 2.54593L350.3 32.967L364.988 30.9028L365.389 33.7547L347.612 36.2532Z" fill="#676769"/>
<path d="M445.393 34.0157L450.07 0.742676L462.381 2.47288C465.423 2.90042 467.688 4.02665 469.177 5.85157C470.67 7.6448 471.238 9.80896 470.882 12.344C470.641 14.0552 470.008 15.4528 468.984 16.5367C467.995 17.5934 466.799 18.2817 465.397 18.6017L465.377 18.7443C466.904 19.3789 468.124 20.4713 469.037 22.0215C469.982 23.5761 470.3 25.4467 469.993 27.6332C469.557 30.7387 468.238 32.9931 466.037 34.3965C463.873 35.7726 460.905 36.1957 457.134 35.6657L445.393 34.0157ZM451.155 15.4368L459.711 16.6392C464.559 17.3206 467.253 15.7441 467.792 11.9098C468.046 10.1036 467.592 8.61798 466.431 7.45304C465.27 6.2881 463.533 5.54307 461.219 5.21796L452.758 4.02887L451.155 15.4368ZM448.884 31.5979L457.155 32.7603C463.017 33.5842 466.267 31.7304 466.903 27.199C467.211 25.0125 466.741 23.2984 465.493 22.0567C464.246 20.815 462.133 19.9848 459.154 19.5662L450.741 18.3838L448.884 31.5979Z" fill="#676769"/>
<path d="M500.494 33.1141L506.739 11.3357L509.738 12.1957L503.573 33.6972C501.932 39.4186 503.849 43.0644 509.325 44.6344C512.032 45.4106 514.28 45.2896 516.07 44.2716C517.9 43.2316 519.216 41.312 520.018 38.5128L526.21 16.919L529.209 17.779L522.965 39.5574C521.906 43.2486 520.135 45.7699 517.65 47.1214C515.174 48.4421 512.121 48.582 508.491 47.5412C504.862 46.5004 502.347 44.764 500.947 42.3319C499.587 39.8779 499.436 36.8053 500.494 33.1141Z" fill="#676769"/>
<path d="M553.865 63.3312L567.531 32.6361L570.381 33.9051L556.715 64.6002L553.865 63.3312Z" fill="#676769"/>
<path d="M596.492 85.4542L614.297 56.9598L616.943 58.6131L600.664 84.6652L613.242 92.5249L611.716 94.9673L596.492 85.4542Z" fill="#676769"/>
<path d="M638.402 111.188L643.292 115.291C649.396 120.413 655.441 119.407 661.427 112.274C664.245 108.915 665.639 105.636 665.609 102.436C665.603 99.2567 664.203 96.4946 661.408 94.1497L656.297 89.861L638.402 111.188ZM634.161 111.388L655.758 85.6493L663.627 92.252C665.098 93.4862 666.267 94.9057 667.134 96.5107C668.002 98.1156 668.541 99.8629 668.751 101.752C668.962 103.642 668.664 105.69 667.858 107.895C667.096 110.097 665.811 112.276 664.001 114.433C662.026 116.787 659.99 118.566 657.892 119.772C655.794 120.978 653.793 121.596 651.887 121.626C650.003 121.632 648.226 121.31 646.556 120.661C644.911 120.033 643.329 119.081 641.809 117.806L634.161 111.388Z" fill="#676769"/>
<path d="M679.003 153.442L703.972 130.96L706.06 133.278L681.09 155.761L679.003 153.442Z" fill="#676769"/>
<path d="M706.627 187.551L734.483 168.762L736.871 172.304L721.467 201.569L721.521 201.649L745.675 185.356L747.42 187.943L719.564 206.732L717.256 203.31L732.58 173.925L732.526 173.845L708.372 190.138L706.627 187.551Z" fill="#676769"/>
<path d="M738.343 242.993C737.515 241.296 737.046 239.567 736.934 237.805C736.823 236.044 737.077 234.265 737.695 232.468C738.343 230.656 739.541 228.879 741.29 227.136C743.082 225.408 745.373 223.863 748.162 222.503C753.081 220.104 757.495 219.482 761.405 220.637C765.315 221.792 768.125 224.123 769.837 227.632C771.268 230.566 771.547 233.474 770.674 236.356C769.83 239.225 768.089 241.64 765.45 243.604L763.438 240.9C768.01 237.282 769.237 233.301 767.119 228.958C765.758 226.168 763.55 224.379 760.495 223.59C757.455 222.83 753.835 223.474 749.635 225.523C745.35 227.613 742.492 230.111 741.06 233.016C739.658 235.907 739.658 238.791 741.061 241.667C742.394 244.4 744.295 246.107 746.764 246.79C749.247 247.501 751.97 247.099 754.933 245.582L750.893 237.299L753.611 235.973L759.061 247.147L756.516 248.389C752.575 250.31 748.979 250.747 745.726 249.699C742.487 248.68 740.026 246.444 738.343 242.993Z" fill="#676769"/>
<path d="M774.604 376.181L808.183 375.008L808.352 379.853L781.771 391.636L781.775 391.732L809.114 401.68L809.282 406.477L775.702 407.649L775.594 404.531L805.335 403.493L805.332 403.397L775.165 392.251L775.141 391.579L804.458 378.356L804.454 378.26L774.712 379.299L774.604 376.181Z" fill="#676769"/>
<path d="M771.948 454.121L779.423 452.348L781.098 436.404L774.156 433.116L774.482 430.014L806.639 445.508L806.298 448.754L771.622 457.224L771.948 454.121ZM802.702 446.687L783.485 437.572L782 451.702L802.692 446.782L802.702 446.687Z" fill="#676769"/>
<path d="M766.618 483.125L799.22 491.254L798.466 494.281L781.885 490.147L781.862 490.24L794.97 508.3L793.995 512.212L782.891 496.829L761.033 505.527L761.95 501.848L781.119 494.21L781.143 494.117L777.507 489.055L765.864 486.152L766.618 483.125Z" fill="#676769"/>
<path d="M751.789 533.039L782.942 545.626L775.516 564.006L772.846 562.927L779.103 547.44L767.977 542.944L762.223 557.186L759.642 556.143L765.396 541.901L753.29 537.011L747.033 552.498L744.363 551.419L751.789 533.039Z" fill="#676769"/>
<path d="M713.457 628.627L711.902 631.554C708.838 629.81 706.223 629.025 704.055 629.2C701.894 629.42 699.759 630.879 697.651 633.577C695.957 635.746 695.188 637.744 695.344 639.571C695.525 641.418 696.309 642.883 697.696 643.967C699.007 644.992 700.44 645.34 701.996 645.012C703.532 644.71 706.016 643.401 709.448 641.088C712.75 638.836 715.456 637.478 717.565 637.014C719.654 636.575 721.631 637.084 723.497 638.542C725.389 640.02 726.419 642.002 726.587 644.489C726.736 647.001 725.845 649.493 723.914 651.964C721.984 654.435 719.757 655.985 717.236 656.614C714.739 657.263 712.175 656.802 709.543 655.233L711.099 652.307C713.075 653.363 714.914 653.765 716.615 653.51C718.297 653.281 719.936 652.145 721.531 650.102C722.93 648.312 723.585 646.59 723.496 644.937C723.413 643.329 722.753 642.042 721.517 641.076C720.408 640.209 719.198 639.914 717.886 640.189C716.555 640.489 714.372 641.646 711.336 643.66C707.205 646.401 704.089 647.947 701.989 648.296C699.894 648.69 697.838 648.099 695.821 646.523C693.703 644.868 692.533 642.675 692.312 639.943C692.096 637.257 693.111 634.476 695.357 631.602C700.282 625.298 706.316 624.306 713.457 628.627Z" fill="#676769"/>
<path d="M652.953 678.317L659.818 681.764L671.351 670.627L668.146 663.646L670.39 661.479L685.064 694.018L682.716 696.285L650.709 680.484L652.953 678.317ZM681.291 692.39L672.429 673.056L662.208 682.926L681.221 692.457L681.291 692.39Z" fill="#676769"/>
<path d="M626.72 699.657L646.469 726.84L643.945 728.674L625.888 703.821L613.889 712.539L612.196 710.209L626.72 699.657Z" fill="#676769"/>
<path d="M586.782 725.814L602.557 755.481L585.053 764.788L583.701 762.245L598.45 754.403L592.816 743.808L579.254 751.019L577.947 748.561L591.509 741.35L585.38 729.822L570.631 737.664L569.279 735.121L586.782 725.814Z" fill="#676769"/>
<path d="M546.809 758.047L543.939 759.704C542.265 756.602 540.463 754.55 538.532 753.55C536.583 752.591 533.999 752.697 530.782 753.868C528.196 754.81 526.485 756.096 525.648 757.729C524.823 759.391 524.712 761.049 525.314 762.703C525.883 764.267 526.914 765.322 528.407 765.868C529.87 766.426 532.669 766.633 536.806 766.489C540.8 766.329 543.814 766.611 545.848 767.335C547.853 768.07 549.26 769.55 550.069 771.775C550.89 774.031 550.713 776.257 549.538 778.456C548.333 780.665 546.257 782.306 543.31 783.379C540.364 784.451 537.654 784.586 535.183 783.783C532.722 783.01 530.791 781.261 529.391 778.536L532.261 776.878C533.377 778.822 534.724 780.136 536.301 780.822C537.849 781.519 539.841 781.424 542.276 780.537C544.411 779.76 545.879 778.647 546.68 777.198C547.461 775.79 547.584 774.349 547.047 772.875C546.566 771.552 545.696 770.66 544.438 770.198C543.151 769.748 540.686 769.572 537.044 769.671C532.088 769.807 528.626 769.466 526.661 768.649C524.675 767.873 523.245 766.283 522.37 763.877C521.45 761.351 521.62 758.871 522.88 756.438C524.121 754.045 526.455 752.225 529.883 750.977C537.4 748.241 543.042 750.598 546.809 758.047Z" fill="#676769"/>
<path d="M438.542 254.061C439.127 253.475 439.127 252.525 438.542 251.939C437.956 251.354 437.006 251.354 436.42 251.939L438.542 254.061ZM437.98 253H439.48V251.5H437.98V253ZM373.061 319.542L438.542 254.061L436.42 251.939L370.939 317.42L373.061 319.542ZM439.48 284.254V253H436.48V284.254H439.48ZM437.98 251.5H406.727V254.5H437.98V251.5Z" fill="#676769"/>
</svg>
