<svg width="14" height="14" viewBox="0 0 14 14" fill="none" xmlns="http://www.w3.org/2000/svg">
<path d="M13 2C13.5523 2 14 1.55228 14 1C14 0.447715 13.5523 0 13 0V2ZM0 2L13 2V0L0 0L0 2Z" fill="#424242"/>
<path d="M13.7071 1.70711C14.0976 1.31658 14.0976 0.683417 13.7071 0.292893C13.3166 -0.0976317 12.6834 -0.0976317 12.2929 0.292893L13.7071 1.70711ZM1.70711 13.7071L13.7071 1.70711L12.2929 0.292893L0.292893 12.2929L1.70711 13.7071Z" fill="#424242"/>
<path d="M14 1C14 0.447715 13.5523 0 13 0C12.4477 0 12 0.447715 12 1L14 1ZM12 13V14H14V13H12ZM12 1V13H14V1L12 1Z" fill="#424242"/>
</svg>
